<svg width="599" height="238" viewBox="0 0 599 238" fill="none" xmlns="http://www.w3.org/2000/svg">
<rect y="77" width="69" height="42" fill="#C4C4C4"/>
<path d="M15.2891 100.881C15 101.295 14.5957 101.605 14.0762 101.812C13.5605 102.016 12.959 102.117 12.2715 102.117C11.5762 102.117 10.959 101.955 10.4199 101.631C9.88086 101.303 9.46289 100.838 9.16602 100.236C8.87305 99.6348 8.72266 98.9375 8.71484 98.1445V97.4004C8.71484 96.1152 9.01367 95.1191 9.61133 94.4121C10.2129 93.7051 11.0566 93.3516 12.1426 93.3516C13.0332 93.3516 13.75 93.5801 14.293 94.0371C14.8359 94.4902 15.168 95.1348 15.2891 95.9707H14.1641C13.9531 94.8418 13.2812 94.2773 12.1484 94.2773C11.3945 94.2773 10.8223 94.543 10.4316 95.0742C10.0449 95.6016 9.84961 96.3672 9.8457 97.3711V98.0684C9.8457 99.0254 10.0645 99.7871 10.502 100.354C10.9395 100.916 11.5312 101.197 12.2773 101.197C12.6992 101.197 13.0684 101.15 13.3848 101.057C13.7012 100.963 13.9629 100.805 14.1699 100.582V98.666H12.1953V97.752H15.2891V100.881ZM18.1777 102H17.0938V95.6602H18.1777V102ZM17.0059 93.9785C17.0059 93.8027 17.0586 93.6543 17.1641 93.5332C17.2734 93.4121 17.4336 93.3516 17.6445 93.3516C17.8555 93.3516 18.0156 93.4121 18.125 93.5332C18.2344 93.6543 18.2891 93.8027 18.2891 93.9785C18.2891 94.1543 18.2344 94.3008 18.125 94.418C18.0156 94.5352 17.8555 94.5938 17.6445 94.5938C17.4336 94.5938 17.2734 94.5352 17.1641 94.418C17.0586 94.3008 17.0059 94.1543 17.0059 93.9785ZM21.3887 94.125V95.6602H22.5723V96.498H21.3887V100.43C21.3887 100.684 21.4414 100.875 21.5469 101.004C21.6523 101.129 21.832 101.191 22.0859 101.191C22.2109 101.191 22.3828 101.168 22.6016 101.121V102C22.3164 102.078 22.0391 102.117 21.7695 102.117C21.2852 102.117 20.9199 101.971 20.6738 101.678C20.4277 101.385 20.3047 100.969 20.3047 100.43V96.498H19.1504V95.6602H20.3047V94.125H21.3887ZM24.9277 96.4277C25.4082 95.8379 26.0332 95.543 26.8027 95.543C28.1426 95.543 28.8184 96.2988 28.8301 97.8105V102H27.7461V97.8047C27.7422 97.3477 27.6367 97.0098 27.4297 96.791C27.2266 96.5723 26.9082 96.4629 26.4746 96.4629C26.123 96.4629 25.8145 96.5566 25.5488 96.7441C25.2832 96.9316 25.0762 97.1777 24.9277 97.4824V102H23.8438V93H24.9277V96.4277ZM34.3672 101.373C33.9453 101.869 33.3262 102.117 32.5098 102.117C31.834 102.117 31.3184 101.922 30.9629 101.531C30.6113 101.137 30.4336 100.555 30.4297 99.7852V95.6602H31.5137V99.7559C31.5137 100.717 31.9043 101.197 32.6855 101.197C33.5137 101.197 34.0645 100.889 34.3379 100.271V95.6602H35.4219V102H34.3906L34.3672 101.373ZM42.4414 98.9004C42.4414 99.8691 42.2188 100.648 41.7734 101.238C41.3281 101.824 40.7305 102.117 39.9805 102.117C39.1797 102.117 38.5605 101.834 38.123 101.268L38.0703 102H37.0742V93H38.1582V96.3574C38.5957 95.8145 39.1992 95.543 39.9688 95.543C40.7383 95.543 41.3418 95.834 41.7793 96.416C42.2207 96.998 42.4414 97.7949 42.4414 98.8066V98.9004ZM41.3574 98.7773C41.3574 98.0391 41.2148 97.4688 40.9297 97.0664C40.6445 96.6641 40.2344 96.4629 39.6992 96.4629C38.9844 96.4629 38.4707 96.7949 38.1582 97.459V100.201C38.4902 100.865 39.0078 101.197 39.7109 101.197C40.2305 101.197 40.6348 100.996 40.9238 100.594C41.2129 100.191 41.3574 99.5859 41.3574 98.7773ZM53.2344 99.293C53.1289 100.195 52.7949 100.893 52.2324 101.385C51.6738 101.873 50.9297 102.117 50 102.117C48.9922 102.117 48.1836 101.756 47.5742 101.033C46.9688 100.311 46.666 99.3438 46.666 98.1328V97.3125C46.666 96.5195 46.8066 95.8223 47.0879 95.2207C47.373 94.6191 47.7754 94.1582 48.2949 93.8379C48.8145 93.5137 49.416 93.3516 50.0996 93.3516C51.0059 93.3516 51.7324 93.6055 52.2793 94.1133C52.8262 94.6172 53.1445 95.3164 53.2344 96.2109H52.1035C52.0059 95.5312 51.793 95.0391 51.4648 94.7344C51.1406 94.4297 50.6855 94.2773 50.0996 94.2773C49.3809 94.2773 48.8164 94.543 48.4062 95.0742C48 95.6055 47.7969 96.3613 47.7969 97.3418V98.168C47.7969 99.0938 47.9902 99.8301 48.377 100.377C48.7637 100.924 49.3047 101.197 50 101.197C50.625 101.197 51.1035 101.057 51.4355 100.775C51.7715 100.49 51.9941 99.9961 52.1035 99.293H53.2344ZM55.9824 102H54.8574V93.4688H55.9824V102Z" fill="black"/>
<rect x="174" y="184" width="69" height="50" fill="#C4C4C4"/>
<path d="M184.816 199.531C183.852 199.253 183.148 198.913 182.707 198.511C182.27 198.105 182.051 197.605 182.051 197.011C182.051 196.339 182.318 195.784 182.854 195.347C183.393 194.906 184.092 194.685 184.951 194.685C185.537 194.685 186.059 194.798 186.516 195.025C186.977 195.251 187.332 195.564 187.582 195.962C187.836 196.361 187.963 196.796 187.963 197.269H186.832C186.832 196.753 186.668 196.349 186.34 196.056C186.012 195.759 185.549 195.611 184.951 195.611C184.396 195.611 183.963 195.734 183.65 195.98C183.342 196.222 183.188 196.56 183.188 196.993C183.188 197.341 183.334 197.636 183.627 197.878C183.924 198.117 184.426 198.335 185.133 198.534C185.844 198.734 186.398 198.954 186.797 199.197C187.199 199.435 187.496 199.714 187.688 200.034C187.883 200.355 187.98 200.732 187.98 201.165C187.98 201.857 187.711 202.411 187.172 202.829C186.633 203.243 185.912 203.451 185.01 203.451C184.424 203.451 183.877 203.339 183.369 203.117C182.861 202.89 182.469 202.581 182.191 202.191C181.918 201.8 181.781 201.357 181.781 200.861H182.912C182.912 201.376 183.102 201.784 183.48 202.085C183.863 202.382 184.373 202.531 185.01 202.531C185.604 202.531 186.059 202.409 186.375 202.167C186.691 201.925 186.85 201.595 186.85 201.177C186.85 200.759 186.703 200.437 186.41 200.21C186.117 199.98 185.586 199.753 184.816 199.531ZM191.889 203.451C191.029 203.451 190.33 203.169 189.791 202.607C189.252 202.04 188.982 201.284 188.982 200.339V200.14C188.982 199.511 189.102 198.951 189.34 198.458C189.582 197.962 189.918 197.576 190.348 197.298C190.781 197.017 191.25 196.876 191.754 196.876C192.578 196.876 193.219 197.148 193.676 197.691C194.133 198.234 194.361 199.011 194.361 200.023V200.474H190.066C190.082 201.099 190.264 201.605 190.611 201.992C190.963 202.374 191.408 202.566 191.947 202.566C192.33 202.566 192.654 202.488 192.92 202.331C193.186 202.175 193.418 201.968 193.617 201.71L194.279 202.226C193.748 203.042 192.951 203.451 191.889 203.451ZM191.754 197.767C191.316 197.767 190.949 197.927 190.652 198.247C190.355 198.564 190.172 199.009 190.102 199.583H193.277V199.501C193.246 198.951 193.098 198.525 192.832 198.224C192.566 197.919 192.207 197.767 191.754 197.767ZM196.646 196.993L196.682 197.79C197.166 197.181 197.799 196.876 198.58 196.876C199.92 196.876 200.596 197.632 200.607 199.144V203.333H199.523V199.138C199.52 198.681 199.414 198.343 199.207 198.124C199.004 197.906 198.686 197.796 198.252 197.796C197.9 197.796 197.592 197.89 197.326 198.077C197.061 198.265 196.854 198.511 196.705 198.816V203.333H195.621V196.993H196.646ZM203.713 195.458V196.993H204.896V197.831H203.713V201.763C203.713 202.017 203.766 202.208 203.871 202.337C203.977 202.462 204.156 202.525 204.41 202.525C204.535 202.525 204.707 202.501 204.926 202.454V203.333C204.641 203.411 204.363 203.451 204.094 203.451C203.609 203.451 203.244 203.304 202.998 203.011C202.752 202.718 202.629 202.302 202.629 201.763V197.831H201.475V196.993H202.629V195.458H203.713ZM209.232 197.966C209.068 197.939 208.891 197.925 208.699 197.925C207.988 197.925 207.506 198.228 207.252 198.833V203.333H206.168V196.993H207.223L207.24 197.726C207.596 197.159 208.1 196.876 208.752 196.876C208.963 196.876 209.123 196.904 209.232 196.958V197.966ZM212.414 201.745L213.891 196.993H215.051L212.502 204.312C212.107 205.367 211.48 205.894 210.621 205.894L210.416 205.876L210.012 205.8V204.921L210.305 204.945C210.672 204.945 210.957 204.87 211.16 204.722C211.367 204.574 211.537 204.302 211.67 203.908L211.91 203.263L209.648 196.993H210.832L212.414 201.745ZM224.367 200.234C224.367 201.202 224.145 201.982 223.699 202.572C223.254 203.158 222.656 203.451 221.906 203.451C221.105 203.451 220.486 203.167 220.049 202.601L219.996 203.333H219V194.333H220.084V197.691C220.521 197.148 221.125 196.876 221.895 196.876C222.664 196.876 223.268 197.167 223.705 197.749C224.146 198.331 224.367 199.128 224.367 200.14V200.234ZM223.283 200.111C223.283 199.372 223.141 198.802 222.855 198.4C222.57 197.997 222.16 197.796 221.625 197.796C220.91 197.796 220.396 198.128 220.084 198.792V201.534C220.416 202.199 220.934 202.531 221.637 202.531C222.156 202.531 222.561 202.329 222.85 201.927C223.139 201.525 223.283 200.919 223.283 200.111ZM225.451 200.105C225.451 199.484 225.572 198.925 225.814 198.429C226.061 197.933 226.4 197.55 226.834 197.281C227.271 197.011 227.77 196.876 228.328 196.876C229.191 196.876 229.889 197.175 230.42 197.773C230.955 198.37 231.223 199.165 231.223 200.158V200.234C231.223 200.851 231.104 201.406 230.865 201.898C230.631 202.386 230.293 202.767 229.852 203.04C229.414 203.314 228.91 203.451 228.34 203.451C227.48 203.451 226.783 203.152 226.248 202.554C225.717 201.956 225.451 201.165 225.451 200.181V200.105ZM226.541 200.234C226.541 200.937 226.703 201.501 227.027 201.927C227.355 202.353 227.793 202.566 228.34 202.566C228.891 202.566 229.328 202.351 229.652 201.921C229.977 201.488 230.139 200.882 230.139 200.105C230.139 199.409 229.973 198.847 229.641 198.417C229.312 197.984 228.875 197.767 228.328 197.767C227.793 197.767 227.361 197.98 227.033 198.406C226.705 198.831 226.541 199.441 226.541 200.234ZM234.053 195.458V196.993H235.236V197.831H234.053V201.763C234.053 202.017 234.105 202.208 234.211 202.337C234.316 202.462 234.496 202.525 234.75 202.525C234.875 202.525 235.047 202.501 235.266 202.454V203.333C234.98 203.411 234.703 203.451 234.434 203.451C233.949 203.451 233.584 203.304 233.338 203.011C233.092 202.718 232.969 202.302 232.969 201.763V197.831H231.814V196.993H232.969V195.458H234.053ZM203.549 215.107H199.975L199.172 217.333H198.012L201.27 208.802H202.254L205.518 217.333H204.363L203.549 215.107ZM200.314 214.181H203.215L201.762 210.191L200.314 214.181ZM211.852 214.234C211.852 215.199 211.631 215.976 211.189 216.566C210.748 217.156 210.15 217.451 209.396 217.451C208.627 217.451 208.021 217.206 207.58 216.718V219.771H206.496V210.993H207.486L207.539 211.697C207.98 211.15 208.594 210.876 209.379 210.876C210.141 210.876 210.742 211.163 211.184 211.738C211.629 212.312 211.852 213.111 211.852 214.134V214.234ZM210.768 214.111C210.768 213.396 210.615 212.831 210.311 212.417C210.006 212.003 209.588 211.796 209.057 211.796C208.4 211.796 207.908 212.087 207.58 212.669V215.699C207.904 216.277 208.4 216.566 209.068 216.566C209.588 216.566 210 216.361 210.305 215.951C210.613 215.536 210.768 214.923 210.768 214.111ZM218.59 214.234C218.59 215.199 218.369 215.976 217.928 216.566C217.486 217.156 216.889 217.451 216.135 217.451C215.365 217.451 214.76 217.206 214.318 216.718V219.771H213.234V210.993H214.225L214.277 211.697C214.719 211.15 215.332 210.876 216.117 210.876C216.879 210.876 217.48 211.163 217.922 211.738C218.367 212.312 218.59 213.111 218.59 214.134V214.234ZM217.506 214.111C217.506 213.396 217.354 212.831 217.049 212.417C216.744 212.003 216.326 211.796 215.795 211.796C215.139 211.796 214.646 212.087 214.318 212.669V215.699C214.643 216.277 215.139 216.566 215.807 216.566C216.326 216.566 216.738 216.361 217.043 215.951C217.352 215.536 217.506 214.923 217.506 214.111Z" fill="black"/>
<rect x="361" y="184" width="88" height="49.7449" fill="#C4C4C4"/>
<path d="M391.059 194.197C390.094 193.92 389.391 193.58 388.949 193.178C388.512 192.771 388.293 192.271 388.293 191.678C388.293 191.006 388.561 190.451 389.096 190.014C389.635 189.572 390.334 189.352 391.193 189.352C391.779 189.352 392.301 189.465 392.758 189.691C393.219 189.918 393.574 190.23 393.824 190.629C394.078 191.027 394.205 191.463 394.205 191.936H393.074C393.074 191.42 392.91 191.016 392.582 190.723C392.254 190.426 391.791 190.277 391.193 190.277C390.639 190.277 390.205 190.4 389.893 190.646C389.584 190.889 389.43 191.227 389.43 191.66C389.43 192.008 389.576 192.303 389.869 192.545C390.166 192.783 390.668 193.002 391.375 193.201C392.086 193.4 392.641 193.621 393.039 193.863C393.441 194.102 393.738 194.381 393.93 194.701C394.125 195.021 394.223 195.398 394.223 195.832C394.223 196.523 393.953 197.078 393.414 197.496C392.875 197.91 392.154 198.117 391.252 198.117C390.666 198.117 390.119 198.006 389.611 197.783C389.104 197.557 388.711 197.248 388.434 196.857C388.16 196.467 388.023 196.023 388.023 195.527H389.154C389.154 196.043 389.344 196.451 389.723 196.752C390.105 197.049 390.615 197.197 391.252 197.197C391.846 197.197 392.301 197.076 392.617 196.834C392.934 196.592 393.092 196.262 393.092 195.844C393.092 195.426 392.945 195.104 392.652 194.877C392.359 194.646 391.828 194.42 391.059 194.197ZM398.131 198.117C397.271 198.117 396.572 197.836 396.033 197.273C395.494 196.707 395.225 195.951 395.225 195.006V194.807C395.225 194.178 395.344 193.617 395.582 193.125C395.824 192.629 396.16 192.242 396.59 191.965C397.023 191.684 397.492 191.543 397.996 191.543C398.82 191.543 399.461 191.814 399.918 192.357C400.375 192.9 400.604 193.678 400.604 194.689V195.141H396.309C396.324 195.766 396.506 196.271 396.854 196.658C397.205 197.041 397.65 197.232 398.189 197.232C398.572 197.232 398.896 197.154 399.162 196.998C399.428 196.842 399.66 196.635 399.859 196.377L400.521 196.893C399.99 197.709 399.193 198.117 398.131 198.117ZM397.996 192.434C397.559 192.434 397.191 192.594 396.895 192.914C396.598 193.23 396.414 193.676 396.344 194.25H399.52V194.168C399.488 193.617 399.34 193.191 399.074 192.891C398.809 192.586 398.449 192.434 397.996 192.434ZM402.889 191.66L402.924 192.457C403.408 191.848 404.041 191.543 404.822 191.543C406.162 191.543 406.838 192.299 406.85 193.811V198H405.766V193.805C405.762 193.348 405.656 193.01 405.449 192.791C405.246 192.572 404.928 192.463 404.494 192.463C404.143 192.463 403.834 192.557 403.568 192.744C403.303 192.932 403.096 193.178 402.947 193.482V198H401.863V191.66H402.889ZM409.955 190.125V191.66H411.139V192.498H409.955V196.43C409.955 196.684 410.008 196.875 410.113 197.004C410.219 197.129 410.398 197.191 410.652 197.191C410.777 197.191 410.949 197.168 411.168 197.121V198C410.883 198.078 410.605 198.117 410.336 198.117C409.852 198.117 409.486 197.971 409.24 197.678C408.994 197.385 408.871 196.969 408.871 196.43V192.498H407.717V191.66H408.871V190.125H409.955ZM415.475 192.633C415.311 192.605 415.133 192.592 414.941 192.592C414.23 192.592 413.748 192.895 413.494 193.5V198H412.41V191.66H413.465L413.482 192.393C413.838 191.826 414.342 191.543 414.994 191.543C415.205 191.543 415.365 191.57 415.475 191.625V192.633ZM418.656 196.412L420.133 191.66H421.293L418.744 198.979C418.35 200.033 417.723 200.561 416.863 200.561L416.658 200.543L416.254 200.467V199.588L416.547 199.611C416.914 199.611 417.199 199.537 417.402 199.389C417.609 199.24 417.779 198.969 417.912 198.574L418.152 197.93L415.891 191.66H417.074L418.656 196.412ZM393.537 208.197C392.572 207.92 391.869 207.58 391.428 207.178C390.99 206.771 390.771 206.271 390.771 205.678C390.771 205.006 391.039 204.451 391.574 204.014C392.113 203.572 392.812 203.352 393.672 203.352C394.258 203.352 394.779 203.465 395.236 203.691C395.697 203.918 396.053 204.23 396.303 204.629C396.557 205.027 396.684 205.463 396.684 205.936H395.553C395.553 205.42 395.389 205.016 395.061 204.723C394.732 204.426 394.27 204.277 393.672 204.277C393.117 204.277 392.684 204.4 392.371 204.646C392.062 204.889 391.908 205.227 391.908 205.66C391.908 206.008 392.055 206.303 392.348 206.545C392.645 206.783 393.146 207.002 393.854 207.201C394.564 207.4 395.119 207.621 395.518 207.863C395.92 208.102 396.217 208.381 396.408 208.701C396.604 209.021 396.701 209.398 396.701 209.832C396.701 210.523 396.432 211.078 395.893 211.496C395.354 211.91 394.633 212.117 393.73 212.117C393.145 212.117 392.598 212.006 392.09 211.783C391.582 211.557 391.189 211.248 390.912 210.857C390.639 210.467 390.502 210.023 390.502 209.527H391.633C391.633 210.043 391.822 210.451 392.201 210.752C392.584 211.049 393.094 211.197 393.73 211.197C394.324 211.197 394.779 211.076 395.096 210.834C395.412 210.592 395.57 210.262 395.57 209.844C395.57 209.426 395.424 209.104 395.131 208.877C394.838 208.646 394.307 208.42 393.537 208.197ZM399.156 212H398.072V203H399.156V212ZM404.811 212C404.748 211.875 404.697 211.652 404.658 211.332C404.154 211.855 403.553 212.117 402.854 212.117C402.229 212.117 401.715 211.941 401.312 211.59C400.914 211.234 400.715 210.785 400.715 210.242C400.715 209.582 400.965 209.07 401.465 208.707C401.969 208.34 402.676 208.156 403.586 208.156H404.641V207.658C404.641 207.279 404.527 206.979 404.301 206.756C404.074 206.529 403.74 206.416 403.299 206.416C402.912 206.416 402.588 206.514 402.326 206.709C402.064 206.904 401.934 207.141 401.934 207.418H400.844C400.844 207.102 400.955 206.797 401.178 206.504C401.404 206.207 401.709 205.973 402.092 205.801C402.479 205.629 402.902 205.543 403.363 205.543C404.094 205.543 404.666 205.727 405.08 206.094C405.494 206.457 405.709 206.959 405.725 207.6V210.518C405.725 211.1 405.799 211.562 405.947 211.906V212H404.811ZM403.012 211.174C403.352 211.174 403.674 211.086 403.979 210.91C404.283 210.734 404.504 210.506 404.641 210.225V208.924H403.791C402.463 208.924 401.799 209.312 401.799 210.09C401.799 210.43 401.912 210.695 402.139 210.887C402.365 211.078 402.656 211.174 403.012 211.174ZM409.967 211.232C410.354 211.232 410.691 211.115 410.98 210.881C411.27 210.646 411.43 210.354 411.461 210.002H412.486C412.467 210.365 412.342 210.711 412.111 211.039C411.881 211.367 411.572 211.629 411.186 211.824C410.803 212.02 410.396 212.117 409.967 212.117C409.104 212.117 408.416 211.83 407.904 211.256C407.396 210.678 407.143 209.889 407.143 208.889V208.707C407.143 208.09 407.256 207.541 407.482 207.061C407.709 206.58 408.033 206.207 408.455 205.941C408.881 205.676 409.383 205.543 409.961 205.543C410.672 205.543 411.262 205.756 411.73 206.182C412.203 206.607 412.455 207.16 412.486 207.84H411.461C411.43 207.43 411.273 207.094 410.992 206.832C410.715 206.566 410.371 206.434 409.961 206.434C409.41 206.434 408.982 206.633 408.678 207.031C408.377 207.426 408.227 207.998 408.227 208.748V208.953C408.227 209.684 408.377 210.246 408.678 210.641C408.979 211.035 409.408 211.232 409.967 211.232ZM415.475 209.064L414.795 209.773V212H413.711V203H414.795V208.443L415.375 207.746L417.35 205.66H418.668L416.201 208.309L418.955 212H417.684L415.475 209.064ZM381.877 224.506L383.096 219.66H384.18L382.334 226H381.455L379.914 221.195L378.414 226H377.535L375.695 219.66H376.773L378.021 224.406L379.498 219.66H380.371L381.877 224.506ZM385 222.771C385 222.15 385.121 221.592 385.363 221.096C385.609 220.6 385.949 220.217 386.383 219.947C386.82 219.678 387.318 219.543 387.877 219.543C388.74 219.543 389.438 219.842 389.969 220.439C390.504 221.037 390.771 221.832 390.771 222.824V222.9C390.771 223.518 390.652 224.072 390.414 224.564C390.18 225.053 389.842 225.434 389.4 225.707C388.963 225.98 388.459 226.117 387.889 226.117C387.029 226.117 386.332 225.818 385.797 225.221C385.266 224.623 385 223.832 385 222.848V222.771ZM386.09 222.9C386.09 223.604 386.252 224.168 386.576 224.594C386.904 225.02 387.342 225.232 387.889 225.232C388.439 225.232 388.877 225.018 389.201 224.588C389.525 224.154 389.688 223.549 389.688 222.771C389.688 222.076 389.521 221.514 389.189 221.084C388.861 220.65 388.424 220.434 387.877 220.434C387.342 220.434 386.91 220.646 386.582 221.072C386.254 221.498 386.09 222.107 386.09 222.9ZM395.195 220.633C395.031 220.605 394.854 220.592 394.662 220.592C393.951 220.592 393.469 220.895 393.215 221.5V226H392.131V219.66H393.186L393.203 220.393C393.559 219.826 394.062 219.543 394.715 219.543C394.926 219.543 395.086 219.57 395.195 219.625V220.633ZM397.967 223.064L397.287 223.773V226H396.203V217H397.287V222.443L397.867 221.746L399.842 219.66H401.16L398.693 222.309L401.447 226H400.176L397.967 223.064ZM405.971 224.318C405.971 224.025 405.859 223.799 405.637 223.639C405.418 223.475 405.033 223.334 404.482 223.217C403.936 223.1 403.5 222.959 403.176 222.795C402.855 222.631 402.617 222.436 402.461 222.209C402.309 221.982 402.232 221.713 402.232 221.4C402.232 220.881 402.451 220.441 402.889 220.082C403.33 219.723 403.893 219.543 404.576 219.543C405.295 219.543 405.877 219.729 406.322 220.1C406.771 220.471 406.996 220.945 406.996 221.523H405.906C405.906 221.227 405.779 220.971 405.525 220.756C405.275 220.541 404.959 220.434 404.576 220.434C404.182 220.434 403.873 220.52 403.65 220.691C403.428 220.863 403.316 221.088 403.316 221.365C403.316 221.627 403.42 221.824 403.627 221.957C403.834 222.09 404.207 222.217 404.746 222.338C405.289 222.459 405.729 222.604 406.064 222.771C406.4 222.939 406.648 223.143 406.809 223.381C406.973 223.615 407.055 223.902 407.055 224.242C407.055 224.809 406.828 225.264 406.375 225.607C405.922 225.947 405.334 226.117 404.611 226.117C404.104 226.117 403.654 226.027 403.264 225.848C402.873 225.668 402.566 225.418 402.344 225.098C402.125 224.773 402.016 224.424 402.016 224.049H403.1C403.119 224.412 403.264 224.701 403.533 224.916C403.807 225.127 404.166 225.232 404.611 225.232C405.021 225.232 405.35 225.15 405.596 224.986C405.846 224.818 405.971 224.596 405.971 224.318ZM413.822 222.9C413.822 223.865 413.602 224.643 413.16 225.232C412.719 225.822 412.121 226.117 411.367 226.117C410.598 226.117 409.992 225.873 409.551 225.385V228.438H408.467V219.66H409.457L409.51 220.363C409.951 219.816 410.564 219.543 411.35 219.543C412.111 219.543 412.713 219.83 413.154 220.404C413.6 220.979 413.822 221.777 413.822 222.801V222.9ZM412.738 222.777C412.738 222.062 412.586 221.498 412.281 221.084C411.977 220.67 411.559 220.463 411.027 220.463C410.371 220.463 409.879 220.754 409.551 221.336V224.365C409.875 224.943 410.371 225.232 411.039 225.232C411.559 225.232 411.971 225.027 412.275 224.617C412.584 224.203 412.738 223.59 412.738 222.777ZM419.119 226C419.057 225.875 419.006 225.652 418.967 225.332C418.463 225.855 417.861 226.117 417.162 226.117C416.537 226.117 416.023 225.941 415.621 225.59C415.223 225.234 415.023 224.785 415.023 224.242C415.023 223.582 415.273 223.07 415.773 222.707C416.277 222.34 416.984 222.156 417.895 222.156H418.949V221.658C418.949 221.279 418.836 220.979 418.609 220.756C418.383 220.529 418.049 220.416 417.607 220.416C417.221 220.416 416.896 220.514 416.635 220.709C416.373 220.904 416.242 221.141 416.242 221.418H415.152C415.152 221.102 415.264 220.797 415.486 220.504C415.713 220.207 416.018 219.973 416.4 219.801C416.787 219.629 417.211 219.543 417.672 219.543C418.402 219.543 418.975 219.727 419.389 220.094C419.803 220.457 420.018 220.959 420.033 221.6V224.518C420.033 225.1 420.107 225.562 420.256 225.906V226H419.119ZM417.32 225.174C417.66 225.174 417.982 225.086 418.287 224.91C418.592 224.734 418.812 224.506 418.949 224.225V222.924H418.1C416.771 222.924 416.107 223.312 416.107 224.09C416.107 224.43 416.221 224.695 416.447 224.887C416.674 225.078 416.965 225.174 417.32 225.174ZM424.275 225.232C424.662 225.232 425 225.115 425.289 224.881C425.578 224.646 425.738 224.354 425.77 224.002H426.795C426.775 224.365 426.65 224.711 426.42 225.039C426.189 225.367 425.881 225.629 425.494 225.824C425.111 226.02 424.705 226.117 424.275 226.117C423.412 226.117 422.725 225.83 422.213 225.256C421.705 224.678 421.451 223.889 421.451 222.889V222.707C421.451 222.09 421.564 221.541 421.791 221.061C422.018 220.58 422.342 220.207 422.764 219.941C423.189 219.676 423.691 219.543 424.27 219.543C424.98 219.543 425.57 219.756 426.039 220.182C426.512 220.607 426.764 221.16 426.795 221.84H425.77C425.738 221.43 425.582 221.094 425.301 220.832C425.023 220.566 424.68 220.434 424.27 220.434C423.719 220.434 423.291 220.633 422.986 221.031C422.686 221.426 422.535 221.998 422.535 222.748V222.953C422.535 223.684 422.686 224.246 422.986 224.641C423.287 225.035 423.717 225.232 424.275 225.232ZM430.645 226.117C429.785 226.117 429.086 225.836 428.547 225.273C428.008 224.707 427.738 223.951 427.738 223.006V222.807C427.738 222.178 427.857 221.617 428.096 221.125C428.338 220.629 428.674 220.242 429.104 219.965C429.537 219.684 430.006 219.543 430.51 219.543C431.334 219.543 431.975 219.814 432.432 220.357C432.889 220.9 433.117 221.678 433.117 222.689V223.141H428.822C428.838 223.766 429.02 224.271 429.367 224.658C429.719 225.041 430.164 225.232 430.703 225.232C431.086 225.232 431.41 225.154 431.676 224.998C431.941 224.842 432.174 224.635 432.373 224.377L433.035 224.893C432.504 225.709 431.707 226.117 430.645 226.117ZM430.51 220.434C430.072 220.434 429.705 220.594 429.408 220.914C429.111 221.23 428.928 221.676 428.857 222.25H432.033V222.168C432.002 221.617 431.854 221.191 431.588 220.891C431.322 220.586 430.963 220.434 430.51 220.434Z" fill="black"/>
<rect x="509" y="84" width="69" height="42" fill="#C4C4C4"/>
<path d="M527.121 108.08H531.164V109H525.99V100.469H527.121V108.08ZM531.99 105.771C531.99 105.15 532.111 104.592 532.354 104.096C532.6 103.6 532.939 103.217 533.373 102.947C533.811 102.678 534.309 102.543 534.867 102.543C535.73 102.543 536.428 102.842 536.959 103.439C537.494 104.037 537.762 104.832 537.762 105.824V105.9C537.762 106.518 537.643 107.072 537.404 107.564C537.17 108.053 536.832 108.434 536.391 108.707C535.953 108.98 535.449 109.117 534.879 109.117C534.02 109.117 533.322 108.818 532.787 108.221C532.256 107.623 531.99 106.832 531.99 105.848V105.771ZM533.08 105.9C533.08 106.604 533.242 107.168 533.566 107.594C533.895 108.02 534.332 108.232 534.879 108.232C535.43 108.232 535.867 108.018 536.191 107.588C536.516 107.154 536.678 106.549 536.678 105.771C536.678 105.076 536.512 104.514 536.18 104.084C535.852 103.65 535.414 103.434 534.867 103.434C534.332 103.434 533.9 103.646 533.572 104.072C533.244 104.498 533.08 105.107 533.08 105.9ZM538.834 105.771C538.834 105.15 538.955 104.592 539.197 104.096C539.443 103.6 539.783 103.217 540.217 102.947C540.654 102.678 541.152 102.543 541.711 102.543C542.574 102.543 543.271 102.842 543.803 103.439C544.338 104.037 544.605 104.832 544.605 105.824V105.9C544.605 106.518 544.486 107.072 544.248 107.564C544.014 108.053 543.676 108.434 543.234 108.707C542.797 108.98 542.293 109.117 541.723 109.117C540.863 109.117 540.166 108.818 539.631 108.221C539.1 107.623 538.834 106.832 538.834 105.848V105.771ZM539.924 105.9C539.924 106.604 540.086 107.168 540.41 107.594C540.738 108.02 541.176 108.232 541.723 108.232C542.273 108.232 542.711 108.018 543.035 107.588C543.359 107.154 543.521 106.549 543.521 105.771C543.521 105.076 543.355 104.514 543.023 104.084C542.695 103.65 542.258 103.434 541.711 103.434C541.176 103.434 540.744 103.646 540.416 104.072C540.088 104.498 539.924 105.107 539.924 105.9ZM547.734 106.064L547.055 106.773V109H545.971V100H547.055V105.443L547.635 104.746L549.609 102.66H550.928L548.461 105.309L551.215 109H549.943L547.734 106.064ZM554.561 109.117C553.701 109.117 553.002 108.836 552.463 108.273C551.924 107.707 551.654 106.951 551.654 106.006V105.807C551.654 105.178 551.773 104.617 552.012 104.125C552.254 103.629 552.59 103.242 553.02 102.965C553.453 102.684 553.922 102.543 554.426 102.543C555.25 102.543 555.891 102.814 556.348 103.357C556.805 103.9 557.033 104.678 557.033 105.689V106.141H552.738C552.754 106.766 552.936 107.271 553.283 107.658C553.635 108.041 554.08 108.232 554.619 108.232C555.002 108.232 555.326 108.154 555.592 107.998C555.857 107.842 556.09 107.635 556.289 107.377L556.951 107.893C556.42 108.709 555.623 109.117 554.561 109.117ZM554.426 103.434C553.988 103.434 553.621 103.594 553.324 103.914C553.027 104.23 552.844 104.676 552.773 105.25H555.949V105.168C555.918 104.617 555.77 104.191 555.504 103.891C555.238 103.586 554.879 103.434 554.426 103.434ZM561.357 103.633C561.193 103.605 561.016 103.592 560.824 103.592C560.113 103.592 559.631 103.895 559.377 104.5V109H558.293V102.66H559.348L559.365 103.393C559.721 102.826 560.225 102.543 560.877 102.543C561.088 102.543 561.248 102.57 561.357 102.625V103.633Z" fill="black"/>
<rect width="69" height="42" fill="#C4C4C4"/>
<path d="M21.6953 21.2324H18.1152V25H16.9902V16.4688H22.2754V17.3945H18.1152V20.3125H21.6953V21.2324ZM26.3652 19.6328C26.2012 19.6055 26.0234 19.5918 25.832 19.5918C25.1211 19.5918 24.6387 19.8945 24.3848 20.5V25H23.3008V18.6602H24.3555L24.373 19.3926C24.7285 18.8262 25.2324 18.543 25.8848 18.543C26.0957 18.543 26.2559 18.5703 26.3652 18.625V19.6328ZM29.8809 25.1172C29.0215 25.1172 28.3223 24.8359 27.7832 24.2734C27.2441 23.707 26.9746 22.9512 26.9746 22.0059V21.8066C26.9746 21.1777 27.0938 20.6172 27.332 20.125C27.5742 19.6289 27.9102 19.2422 28.3398 18.9648C28.7734 18.6836 29.2422 18.543 29.7461 18.543C30.5703 18.543 31.2109 18.8145 31.668 19.3574C32.125 19.9004 32.3535 20.6777 32.3535 21.6895V22.1406H28.0586C28.0742 22.7656 28.2559 23.2715 28.6035 23.6582C28.9551 24.041 29.4004 24.2324 29.9395 24.2324C30.3223 24.2324 30.6465 24.1543 30.9121 23.998C31.1777 23.8418 31.4102 23.6348 31.6094 23.377L32.2715 23.8926C31.7402 24.709 30.9434 25.1172 29.8809 25.1172ZM29.7461 19.4336C29.3086 19.4336 28.9414 19.5938 28.6445 19.9141C28.3477 20.2305 28.1641 20.6758 28.0938 21.25H31.2695V21.168C31.2383 20.6172 31.0898 20.1914 30.8242 19.8906C30.5586 19.5859 30.1992 19.4336 29.7461 19.4336ZM34.791 25H33.707V18.6602H34.791V25ZM33.6191 16.9785C33.6191 16.8027 33.6719 16.6543 33.7773 16.5332C33.8867 16.4121 34.0469 16.3516 34.2578 16.3516C34.4688 16.3516 34.6289 16.4121 34.7383 16.5332C34.8477 16.6543 34.9023 16.8027 34.9023 16.9785C34.9023 17.1543 34.8477 17.3008 34.7383 17.418C34.6289 17.5352 34.4688 17.5938 34.2578 17.5938C34.0469 17.5938 33.8867 17.5352 33.7773 17.418C33.6719 17.3008 33.6191 17.1543 33.6191 16.9785ZM36.2734 21.7773C36.2734 20.7891 36.502 20.0039 36.959 19.4219C37.416 18.8359 38.0215 18.543 38.7754 18.543C39.5488 18.543 40.1523 18.8164 40.5859 19.3633L40.6387 18.6602H41.6289V24.8477C41.6289 25.668 41.3848 26.3145 40.8965 26.7871C40.4121 27.2598 39.7598 27.4961 38.9395 27.4961C38.4824 27.4961 38.0352 27.3984 37.5977 27.2031C37.1602 27.0078 36.8262 26.7402 36.5957 26.4004L37.1582 25.75C37.623 26.3242 38.1914 26.6113 38.8633 26.6113C39.3906 26.6113 39.8008 26.4629 40.0938 26.166C40.3906 25.8691 40.5391 25.4512 40.5391 24.9121V24.3672C40.1055 24.8672 39.5137 25.1172 38.7637 25.1172C38.0215 25.1172 37.4199 24.8184 36.959 24.2207C36.502 23.623 36.2734 22.8086 36.2734 21.7773ZM37.3633 21.9004C37.3633 22.6152 37.5098 23.1777 37.8027 23.5879C38.0957 23.9941 38.5059 24.1973 39.0332 24.1973C39.7168 24.1973 40.2188 23.8867 40.5391 23.2656V20.3711C40.207 19.7656 39.709 19.4629 39.0449 19.4629C38.5176 19.4629 38.1055 19.668 37.8086 20.0781C37.5117 20.4883 37.3633 21.0957 37.3633 21.9004ZM44.3535 19.4277C44.834 18.8379 45.459 18.543 46.2285 18.543C47.5684 18.543 48.2441 19.2988 48.2559 20.8105V25H47.1719V20.8047C47.168 20.3477 47.0625 20.0098 46.8555 19.791C46.6523 19.5723 46.334 19.4629 45.9004 19.4629C45.5488 19.4629 45.2402 19.5566 44.9746 19.7441C44.709 19.9316 44.502 20.1777 44.3535 20.4824V25H43.2695V16H44.3535V19.4277ZM51.3496 17.125V18.6602H52.5332V19.498H51.3496V23.4297C51.3496 23.6836 51.4023 23.875 51.5078 24.0039C51.6133 24.1289 51.793 24.1914 52.0469 24.1914C52.1719 24.1914 52.3438 24.168 52.5625 24.1211V25C52.2773 25.0781 52 25.1172 51.7305 25.1172C51.2461 25.1172 50.8809 24.9707 50.6348 24.6777C50.3887 24.3848 50.2656 23.9688 50.2656 23.4297V19.498H49.1113V18.6602H50.2656V17.125H51.3496Z" fill="black"/>
<rect x="361" y="84" width="69" height="41" fill="#C4C4C4"/>
<path d="M371.99 108.667V100.135H374.779C375.705 100.135 376.4 100.327 376.865 100.71C377.334 101.092 377.568 101.659 377.568 102.409C377.568 102.807 377.455 103.161 377.229 103.469C377.002 103.774 376.693 104.01 376.303 104.178C376.764 104.307 377.127 104.553 377.393 104.917C377.662 105.276 377.797 105.706 377.797 106.206C377.797 106.971 377.549 107.573 377.053 108.01C376.557 108.448 375.855 108.667 374.949 108.667H371.99ZM373.115 104.676V107.747H374.973C375.496 107.747 375.908 107.612 376.209 107.342C376.514 107.069 376.666 106.694 376.666 106.217C376.666 105.19 376.107 104.676 374.99 104.676H373.115ZM373.115 103.774H374.814C375.307 103.774 375.699 103.651 375.992 103.405C376.289 103.159 376.438 102.825 376.438 102.403C376.438 101.934 376.301 101.594 376.027 101.383C375.754 101.169 375.338 101.061 374.779 101.061H373.115V103.774ZM380.475 108.667H379.391V102.327H380.475V108.667ZM379.303 100.645C379.303 100.469 379.355 100.321 379.461 100.2C379.57 100.079 379.73 100.018 379.941 100.018C380.152 100.018 380.312 100.079 380.422 100.2C380.531 100.321 380.586 100.469 380.586 100.645C380.586 100.821 380.531 100.967 380.422 101.085C380.312 101.202 380.152 101.26 379.941 101.26C379.73 101.26 379.57 101.202 379.461 101.085C379.355 100.967 379.303 100.821 379.303 100.645ZM381.957 105.444C381.957 104.456 382.186 103.671 382.643 103.089C383.1 102.503 383.705 102.21 384.459 102.21C385.232 102.21 385.836 102.483 386.27 103.03L386.322 102.327H387.312V108.514C387.312 109.335 387.068 109.981 386.58 110.454C386.096 110.926 385.443 111.163 384.623 111.163C384.166 111.163 383.719 111.065 383.281 110.87C382.844 110.674 382.51 110.407 382.279 110.067L382.842 109.417C383.307 109.991 383.875 110.278 384.547 110.278C385.074 110.278 385.484 110.13 385.777 109.833C386.074 109.536 386.223 109.118 386.223 108.579V108.034C385.789 108.534 385.197 108.784 384.447 108.784C383.705 108.784 383.104 108.485 382.643 107.887C382.186 107.29 381.957 106.475 381.957 105.444ZM383.047 105.567C383.047 106.282 383.193 106.844 383.486 107.255C383.779 107.661 384.189 107.864 384.717 107.864C385.4 107.864 385.902 107.553 386.223 106.932V104.038C385.891 103.432 385.393 103.13 384.729 103.13C384.201 103.13 383.789 103.335 383.492 103.745C383.195 104.155 383.047 104.762 383.047 105.567ZM395.639 104.676C395.639 105.501 395.508 106.212 395.246 106.809C394.984 107.403 394.617 107.868 394.145 108.204L395.668 109.399L394.9 110.108L393.102 108.678C392.82 108.749 392.523 108.784 392.211 108.784C391.539 108.784 390.943 108.62 390.424 108.292C389.904 107.96 389.5 107.489 389.211 106.88C388.926 106.266 388.779 105.557 388.771 104.753V104.137C388.771 103.317 388.914 102.592 389.199 101.964C389.484 101.335 389.887 100.854 390.406 100.522C390.93 100.186 391.527 100.018 392.199 100.018C392.887 100.018 393.49 100.184 394.01 100.516C394.533 100.848 394.936 101.327 395.217 101.952C395.498 102.573 395.639 103.299 395.639 104.132V104.676ZM394.514 104.126C394.514 103.122 394.312 102.348 393.91 101.805C393.512 101.258 392.941 100.985 392.199 100.985C391.492 100.985 390.934 101.257 390.523 101.799C390.117 102.339 389.908 103.089 389.896 104.049V104.676C389.896 105.653 390.1 106.423 390.506 106.985C390.916 107.548 391.484 107.829 392.211 107.829C392.938 107.829 393.5 107.565 393.898 107.038C394.297 106.507 394.502 105.747 394.514 104.758V104.126ZM401.117 108.04C400.695 108.536 400.076 108.784 399.26 108.784C398.584 108.784 398.068 108.589 397.713 108.198C397.361 107.803 397.184 107.221 397.18 106.452V102.327H398.264V106.423C398.264 107.383 398.654 107.864 399.436 107.864C400.264 107.864 400.814 107.555 401.088 106.938V102.327H402.172V108.667H401.141L401.117 108.04ZM406.455 108.784C405.596 108.784 404.896 108.503 404.357 107.94C403.818 107.374 403.549 106.618 403.549 105.673V105.473C403.549 104.844 403.668 104.284 403.906 103.792C404.148 103.296 404.484 102.909 404.914 102.632C405.348 102.35 405.816 102.21 406.32 102.21C407.145 102.21 407.785 102.481 408.242 103.024C408.699 103.567 408.928 104.344 408.928 105.356V105.807H404.633C404.648 106.432 404.83 106.938 405.178 107.325C405.529 107.708 405.975 107.899 406.514 107.899C406.896 107.899 407.221 107.821 407.486 107.665C407.752 107.508 407.984 107.301 408.184 107.044L408.846 107.559C408.314 108.376 407.518 108.784 406.455 108.784ZM406.32 103.1C405.883 103.1 405.516 103.26 405.219 103.581C404.922 103.897 404.738 104.342 404.668 104.917H407.844V104.835C407.812 104.284 407.664 103.858 407.398 103.557C407.133 103.253 406.773 103.1 406.32 103.1ZM413.252 103.299C413.088 103.272 412.91 103.258 412.719 103.258C412.008 103.258 411.525 103.561 411.271 104.167V108.667H410.188V102.327H411.242L411.26 103.059C411.615 102.493 412.119 102.21 412.771 102.21C412.982 102.21 413.143 102.237 413.252 102.292V103.299ZM416.434 107.079L417.91 102.327H419.07L416.521 109.645C416.127 110.7 415.5 111.227 414.641 111.227L414.436 111.21L414.031 111.133V110.255L414.324 110.278C414.691 110.278 414.977 110.204 415.18 110.055C415.387 109.907 415.557 109.635 415.689 109.241L415.93 108.596L413.668 102.327H414.852L416.434 107.079Z" fill="black"/>
<rect x="174" y="75" width="69" height="61" fill="#C4C4C4"/>
<path d="M188.027 98.1973C187.062 97.9199 186.359 97.5801 185.918 97.1777C185.48 96.7715 185.262 96.2715 185.262 95.6777C185.262 95.0059 185.529 94.4512 186.064 94.0137C186.604 93.5723 187.303 93.3516 188.162 93.3516C188.748 93.3516 189.27 93.4648 189.727 93.6914C190.188 93.918 190.543 94.2305 190.793 94.6289C191.047 95.0273 191.174 95.4629 191.174 95.9355H190.043C190.043 95.4199 189.879 95.0156 189.551 94.7227C189.223 94.4258 188.76 94.2773 188.162 94.2773C187.607 94.2773 187.174 94.4004 186.861 94.6465C186.553 94.8887 186.398 95.2266 186.398 95.6602C186.398 96.0078 186.545 96.3027 186.838 96.5449C187.135 96.7832 187.637 97.002 188.344 97.2012C189.055 97.4004 189.609 97.6211 190.008 97.8633C190.41 98.1016 190.707 98.3809 190.898 98.7012C191.094 99.0215 191.191 99.3984 191.191 99.832C191.191 100.523 190.922 101.078 190.383 101.496C189.844 101.91 189.123 102.117 188.221 102.117C187.635 102.117 187.088 102.006 186.58 101.783C186.072 101.557 185.68 101.248 185.402 100.857C185.129 100.467 184.992 100.023 184.992 99.5273H186.123C186.123 100.043 186.312 100.451 186.691 100.752C187.074 101.049 187.584 101.197 188.221 101.197C188.814 101.197 189.27 101.076 189.586 100.834C189.902 100.592 190.061 100.262 190.061 99.8438C190.061 99.4258 189.914 99.1035 189.621 98.877C189.328 98.6465 188.797 98.4199 188.027 98.1973ZM195.1 102.117C194.24 102.117 193.541 101.836 193.002 101.273C192.463 100.707 192.193 99.9512 192.193 99.0059V98.8066C192.193 98.1777 192.312 97.6172 192.551 97.125C192.793 96.6289 193.129 96.2422 193.559 95.9648C193.992 95.6836 194.461 95.543 194.965 95.543C195.789 95.543 196.43 95.8145 196.887 96.3574C197.344 96.9004 197.572 97.6777 197.572 98.6895V99.1406H193.277C193.293 99.7656 193.475 100.271 193.822 100.658C194.174 101.041 194.619 101.232 195.158 101.232C195.541 101.232 195.865 101.154 196.131 100.998C196.396 100.842 196.629 100.635 196.828 100.377L197.49 100.893C196.959 101.709 196.162 102.117 195.1 102.117ZM194.965 96.4336C194.527 96.4336 194.16 96.5938 193.863 96.9141C193.566 97.2305 193.383 97.6758 193.312 98.25H196.488V98.168C196.457 97.6172 196.309 97.1914 196.043 96.8906C195.777 96.5859 195.418 96.4336 194.965 96.4336ZM199.857 95.6602L199.893 96.457C200.377 95.8477 201.01 95.543 201.791 95.543C203.131 95.543 203.807 96.2988 203.818 97.8105V102H202.734V97.8047C202.73 97.3477 202.625 97.0098 202.418 96.791C202.215 96.5723 201.896 96.4629 201.463 96.4629C201.111 96.4629 200.803 96.5566 200.537 96.7441C200.271 96.9316 200.064 97.1777 199.916 97.4824V102H198.832V95.6602H199.857ZM206.924 94.125V95.6602H208.107V96.498H206.924V100.43C206.924 100.684 206.977 100.875 207.082 101.004C207.188 101.129 207.367 101.191 207.621 101.191C207.746 101.191 207.918 101.168 208.137 101.121V102C207.852 102.078 207.574 102.117 207.305 102.117C206.82 102.117 206.455 101.971 206.209 101.678C205.963 101.385 205.84 100.969 205.84 100.43V96.498H204.686V95.6602H205.84V94.125H206.924ZM212.443 96.6328C212.279 96.6055 212.102 96.5918 211.91 96.5918C211.199 96.5918 210.717 96.8945 210.463 97.5V102H209.379V95.6602H210.434L210.451 96.3926C210.807 95.8262 211.311 95.543 211.963 95.543C212.174 95.543 212.334 95.5703 212.443 95.625V96.6328ZM215.625 100.412L217.102 95.6602H218.262L215.713 102.979C215.318 104.033 214.691 104.561 213.832 104.561L213.627 104.543L213.223 104.467V103.588L213.516 103.611C213.883 103.611 214.168 103.537 214.371 103.389C214.578 103.24 214.748 102.969 214.881 102.574L215.121 101.93L212.859 95.6602H214.043L215.625 100.412ZM228.656 99.293C228.551 100.195 228.217 100.893 227.654 101.385C227.096 101.873 226.352 102.117 225.422 102.117C224.414 102.117 223.605 101.756 222.996 101.033C222.391 100.311 222.088 99.3438 222.088 98.1328V97.3125C222.088 96.5195 222.229 95.8223 222.51 95.2207C222.795 94.6191 223.197 94.1582 223.717 93.8379C224.236 93.5137 224.838 93.3516 225.521 93.3516C226.428 93.3516 227.154 93.6055 227.701 94.1133C228.248 94.6172 228.566 95.3164 228.656 96.2109H227.525C227.428 95.5312 227.215 95.0391 226.887 94.7344C226.562 94.4297 226.107 94.2773 225.521 94.2773C224.803 94.2773 224.238 94.543 223.828 95.0742C223.422 95.6055 223.219 96.3613 223.219 97.3418V98.168C223.219 99.0938 223.412 99.8301 223.799 100.377C224.186 100.924 224.727 101.197 225.422 101.197C226.047 101.197 226.525 101.057 226.857 100.775C227.193 100.49 227.416 99.9961 227.525 99.293H228.656ZM231.404 102H230.279V93.4688H231.404V102ZM184.166 108.395H181.424V116H180.305V108.395H177.568V107.469H184.166V108.395ZM184.389 112.771C184.389 112.15 184.51 111.592 184.752 111.096C184.998 110.6 185.338 110.217 185.771 109.947C186.209 109.678 186.707 109.543 187.266 109.543C188.129 109.543 188.826 109.842 189.357 110.439C189.893 111.037 190.16 111.832 190.16 112.824V112.9C190.16 113.518 190.041 114.072 189.803 114.564C189.568 115.053 189.23 115.434 188.789 115.707C188.352 115.98 187.848 116.117 187.277 116.117C186.418 116.117 185.721 115.818 185.186 115.221C184.654 114.623 184.389 113.832 184.389 112.848V112.771ZM185.479 112.9C185.479 113.604 185.641 114.168 185.965 114.594C186.293 115.02 186.73 115.232 187.277 115.232C187.828 115.232 188.266 115.018 188.59 114.588C188.914 114.154 189.076 113.549 189.076 112.771C189.076 112.076 188.91 111.514 188.578 111.084C188.25 110.65 187.812 110.434 187.266 110.434C186.73 110.434 186.299 110.646 185.971 111.072C185.643 111.498 185.479 112.107 185.479 112.9ZM191.232 112.771C191.232 112.15 191.354 111.592 191.596 111.096C191.842 110.6 192.182 110.217 192.615 109.947C193.053 109.678 193.551 109.543 194.109 109.543C194.973 109.543 195.67 109.842 196.201 110.439C196.736 111.037 197.004 111.832 197.004 112.824V112.9C197.004 113.518 196.885 114.072 196.646 114.564C196.412 115.053 196.074 115.434 195.633 115.707C195.195 115.98 194.691 116.117 194.121 116.117C193.262 116.117 192.564 115.818 192.029 115.221C191.498 114.623 191.232 113.832 191.232 112.848V112.771ZM192.322 112.9C192.322 113.604 192.484 114.168 192.809 114.594C193.137 115.02 193.574 115.232 194.121 115.232C194.672 115.232 195.109 115.018 195.434 114.588C195.758 114.154 195.92 113.549 195.92 112.771C195.92 112.076 195.754 111.514 195.422 111.084C195.094 110.65 194.656 110.434 194.109 110.434C193.574 110.434 193.143 110.646 192.814 111.072C192.486 111.498 192.322 112.107 192.322 112.9ZM199.541 116H198.457V107H199.541V116ZM202.459 116H201.375V109.66H202.459V116ZM201.287 107.979C201.287 107.803 201.34 107.654 201.445 107.533C201.555 107.412 201.715 107.352 201.926 107.352C202.137 107.352 202.297 107.412 202.406 107.533C202.516 107.654 202.57 107.803 202.57 107.979C202.57 108.154 202.516 108.301 202.406 108.418C202.297 108.535 202.137 108.594 201.926 108.594C201.715 108.594 201.555 108.535 201.445 108.418C201.34 108.301 201.287 108.154 201.287 107.979ZM205.225 109.66L205.26 110.457C205.744 109.848 206.377 109.543 207.158 109.543C208.498 109.543 209.174 110.299 209.186 111.811V116H208.102V111.805C208.098 111.348 207.992 111.01 207.785 110.791C207.582 110.572 207.264 110.463 206.83 110.463C206.479 110.463 206.17 110.557 205.904 110.744C205.639 110.932 205.432 111.178 205.283 111.482V116H204.199V109.66H205.225ZM210.562 112.777C210.562 111.789 210.791 111.004 211.248 110.422C211.705 109.836 212.311 109.543 213.064 109.543C213.838 109.543 214.441 109.816 214.875 110.363L214.928 109.66H215.918V115.848C215.918 116.668 215.674 117.314 215.186 117.787C214.701 118.26 214.049 118.496 213.229 118.496C212.771 118.496 212.324 118.398 211.887 118.203C211.449 118.008 211.115 117.74 210.885 117.4L211.447 116.75C211.912 117.324 212.48 117.611 213.152 117.611C213.68 117.611 214.09 117.463 214.383 117.166C214.68 116.869 214.828 116.451 214.828 115.912V115.367C214.395 115.867 213.803 116.117 213.053 116.117C212.311 116.117 211.709 115.818 211.248 115.221C210.791 114.623 210.562 113.809 210.562 112.777ZM211.652 112.9C211.652 113.615 211.799 114.178 212.092 114.588C212.385 114.994 212.795 115.197 213.322 115.197C214.006 115.197 214.508 114.887 214.828 114.266V111.371C214.496 110.766 213.998 110.463 213.334 110.463C212.807 110.463 212.395 110.668 212.098 111.078C211.801 111.488 211.652 112.096 211.652 112.9ZM224.449 116C224.387 115.875 224.336 115.652 224.297 115.332C223.793 115.855 223.191 116.117 222.492 116.117C221.867 116.117 221.354 115.941 220.951 115.59C220.553 115.234 220.354 114.785 220.354 114.242C220.354 113.582 220.604 113.07 221.104 112.707C221.607 112.34 222.314 112.156 223.225 112.156H224.279V111.658C224.279 111.279 224.166 110.979 223.939 110.756C223.713 110.529 223.379 110.416 222.938 110.416C222.551 110.416 222.227 110.514 221.965 110.709C221.703 110.904 221.572 111.141 221.572 111.418H220.482C220.482 111.102 220.594 110.797 220.816 110.504C221.043 110.207 221.348 109.973 221.73 109.801C222.117 109.629 222.541 109.543 223.002 109.543C223.732 109.543 224.305 109.727 224.719 110.094C225.133 110.457 225.348 110.959 225.363 111.6V114.518C225.363 115.1 225.438 115.562 225.586 115.906V116H224.449ZM222.65 115.174C222.99 115.174 223.312 115.086 223.617 114.91C223.922 114.734 224.143 114.506 224.279 114.225V112.924H223.43C222.102 112.924 221.438 113.312 221.438 114.09C221.438 114.43 221.551 114.695 221.777 114.887C222.004 115.078 222.295 115.174 222.65 115.174ZM232.418 112.9C232.418 113.865 232.197 114.643 231.756 115.232C231.314 115.822 230.717 116.117 229.963 116.117C229.193 116.117 228.588 115.873 228.146 115.385V118.438H227.062V109.66H228.053L228.105 110.363C228.547 109.816 229.16 109.543 229.945 109.543C230.707 109.543 231.309 109.83 231.75 110.404C232.195 110.979 232.418 111.777 232.418 112.801V112.9ZM231.334 112.777C231.334 112.062 231.182 111.498 230.877 111.084C230.572 110.67 230.154 110.463 229.623 110.463C228.967 110.463 228.475 110.754 228.146 111.336V114.365C228.471 114.943 228.967 115.232 229.635 115.232C230.154 115.232 230.566 115.027 230.871 114.617C231.18 114.203 231.334 113.59 231.334 112.777ZM239.156 112.9C239.156 113.865 238.936 114.643 238.494 115.232C238.053 115.822 237.455 116.117 236.701 116.117C235.932 116.117 235.326 115.873 234.885 115.385V118.438H233.801V109.66H234.791L234.844 110.363C235.285 109.816 235.898 109.543 236.684 109.543C237.445 109.543 238.047 109.83 238.488 110.404C238.934 110.979 239.156 111.777 239.156 112.801V112.9ZM238.072 112.777C238.072 112.062 237.92 111.498 237.615 111.084C237.311 110.67 236.893 110.463 236.361 110.463C235.705 110.463 235.213 110.754 234.885 111.336V114.365C235.209 114.943 235.705 115.232 236.373 115.232C236.893 115.232 237.305 115.027 237.609 114.617C237.918 114.203 238.072 113.59 238.072 112.777Z" fill="black"/>
<path d="M174.108 88.4882C174.378 88.4287 174.548 88.1618 174.488 87.8921L173.517 83.4981C173.458 83.2285 173.191 83.0582 172.921 83.1177C172.652 83.1773 172.481 83.4442 172.541 83.7138L173.404 87.6196L169.498 88.4826C169.228 88.5421 169.058 88.809 169.118 89.0786C169.177 89.3483 169.444 89.5186 169.714 89.459L174.108 88.4882ZM68.731 21.4215L173.731 88.4215L174.269 87.5785L69.269 20.5785L68.731 21.4215Z" fill="black"/>
<path d="M361.354 105.354C361.549 105.158 361.549 104.842 361.354 104.646L358.172 101.464C357.976 101.269 357.66 101.269 357.464 101.464C357.269 101.66 357.269 101.976 357.464 102.172L360.293 105L357.464 107.828C357.269 108.024 357.269 108.34 357.464 108.536C357.66 108.731 357.976 108.731 358.172 108.536L361.354 105.354ZM243 105.5H361V104.5H243V105.5Z" fill="black"/>
<path d="M429.646 104.646C429.451 104.842 429.451 105.158 429.646 105.354L432.828 108.536C433.024 108.731 433.34 108.731 433.536 108.536C433.731 108.34 433.731 108.024 433.536 107.828L430.707 105L433.536 102.172C433.731 101.976 433.731 101.66 433.536 101.464C433.34 101.269 433.024 101.269 432.828 101.464L429.646 104.646ZM509 104.5L430 104.5V105.5L509 105.5V104.5Z" fill="black"/>
<path d="M448.646 218.646C448.451 218.842 448.451 219.158 448.646 219.354L451.828 222.536C452.024 222.731 452.34 222.731 452.536 222.536C452.731 222.34 452.731 222.024 452.536 221.828L449.707 219L452.536 216.172C452.731 215.976 452.731 215.66 452.536 215.464C452.34 215.269 452.024 215.269 451.828 215.464L448.646 218.646ZM516 218.5L449 218.5L449 219.5L516 219.5L516 218.5Z" fill="black"/>
<path d="M242.646 218.646C242.451 218.842 242.451 219.158 242.646 219.354L245.828 222.536C246.024 222.731 246.34 222.731 246.536 222.536C246.731 222.34 246.731 222.024 246.536 221.828L243.707 219L246.536 216.172C246.731 215.976 246.731 215.66 246.536 215.464C246.34 215.269 246.024 215.269 245.828 215.464L242.646 218.646ZM361 218.5L243 218.5V219.5L361 219.5V218.5Z" fill="black"/>
<path d="M174.36 96.3468C174.552 96.1478 174.546 95.8313 174.347 95.6398L171.105 92.519C170.906 92.3275 170.589 92.3335 170.398 92.5324C170.206 92.7314 170.212 93.0479 170.411 93.2394L173.293 96.0135L170.519 98.8952C170.327 99.0942 170.333 99.4107 170.532 99.6022C170.731 99.7937 171.048 99.7877 171.239 99.5888L174.36 96.3468ZM69.0095 98.4999L174.01 96.4999L173.99 95.5001L68.9905 97.5001L69.0095 98.4999Z" fill="black"/>
<path d="M361.356 197.35C361.549 197.153 361.546 196.837 361.349 196.643L358.138 193.491C357.941 193.298 357.624 193.301 357.431 193.498C357.237 193.695 357.24 194.011 357.437 194.205L360.292 197.007L357.49 199.861C357.297 200.058 357.3 200.375 357.497 200.568C357.694 200.762 358.01 200.759 358.204 200.562L361.356 197.35ZM243.005 198.603L361.004 197.5L360.994 196.5L242.995 197.603L243.005 198.603Z" fill="black"/>
<path d="M272.504 95.1973C271.539 94.9199 270.836 94.5801 270.395 94.1777C269.957 93.7715 269.738 93.2715 269.738 92.6777C269.738 92.0059 270.006 91.4512 270.541 91.0137C271.08 90.5723 271.779 90.3516 272.639 90.3516C273.225 90.3516 273.746 90.4648 274.203 90.6914C274.664 90.918 275.02 91.2305 275.27 91.6289C275.523 92.0273 275.65 92.4629 275.65 92.9355H274.52C274.52 92.4199 274.355 92.0156 274.027 91.7227C273.699 91.4258 273.236 91.2773 272.639 91.2773C272.084 91.2773 271.65 91.4004 271.338 91.6465C271.029 91.8887 270.875 92.2266 270.875 92.6602C270.875 93.0078 271.021 93.3027 271.314 93.5449C271.611 93.7832 272.113 94.002 272.82 94.2012C273.531 94.4004 274.086 94.6211 274.484 94.8633C274.887 95.1016 275.184 95.3809 275.375 95.7012C275.57 96.0215 275.668 96.3984 275.668 96.832C275.668 97.5234 275.398 98.0781 274.859 98.4961C274.32 98.9102 273.6 99.1172 272.697 99.1172C272.111 99.1172 271.564 99.0059 271.057 98.7832C270.549 98.5566 270.156 98.248 269.879 97.8574C269.605 97.4668 269.469 97.0234 269.469 96.5273H270.6C270.6 97.043 270.789 97.4512 271.168 97.752C271.551 98.0488 272.061 98.1973 272.697 98.1973C273.291 98.1973 273.746 98.0762 274.062 97.834C274.379 97.5918 274.537 97.2617 274.537 96.8438C274.537 96.4258 274.391 96.1035 274.098 95.877C273.805 95.6465 273.273 95.4199 272.504 95.1973ZM278.416 91.125V92.6602H279.6V93.498H278.416V97.4297C278.416 97.6836 278.469 97.875 278.574 98.0039C278.68 98.1289 278.859 98.1914 279.113 98.1914C279.238 98.1914 279.41 98.168 279.629 98.1211V99C279.344 99.0781 279.066 99.1172 278.797 99.1172C278.312 99.1172 277.947 98.9707 277.701 98.6777C277.455 98.3848 277.332 97.9688 277.332 97.4297V93.498H276.178V92.6602H277.332V91.125H278.416ZM280.467 95.7715C280.467 95.1504 280.588 94.5918 280.83 94.0957C281.076 93.5996 281.416 93.2168 281.85 92.9473C282.287 92.6777 282.785 92.543 283.344 92.543C284.207 92.543 284.904 92.8418 285.436 93.4395C285.971 94.0371 286.238 94.832 286.238 95.8242V95.9004C286.238 96.5176 286.119 97.0723 285.881 97.5645C285.646 98.0527 285.309 98.4336 284.867 98.707C284.43 98.9805 283.926 99.1172 283.355 99.1172C282.496 99.1172 281.799 98.8184 281.264 98.2207C280.732 97.623 280.467 96.832 280.467 95.8477V95.7715ZM281.557 95.9004C281.557 96.6035 281.719 97.168 282.043 97.5938C282.371 98.0195 282.809 98.2324 283.355 98.2324C283.906 98.2324 284.344 98.0176 284.668 97.5879C284.992 97.1543 285.154 96.5488 285.154 95.7715C285.154 95.0762 284.988 94.5137 284.656 94.084C284.328 93.6504 283.891 93.4336 283.344 93.4336C282.809 93.4336 282.377 93.6465 282.049 94.0723C281.721 94.498 281.557 95.1074 281.557 95.9004ZM290.662 93.6328C290.498 93.6055 290.32 93.5918 290.129 93.5918C289.418 93.5918 288.936 93.8945 288.682 94.5V99H287.598V92.6602H288.652L288.67 93.3926C289.025 92.8262 289.529 92.543 290.182 92.543C290.393 92.543 290.553 92.5703 290.662 92.625V93.6328ZM294.178 99.1172C293.318 99.1172 292.619 98.8359 292.08 98.2734C291.541 97.707 291.271 96.9512 291.271 96.0059V95.8066C291.271 95.1777 291.391 94.6172 291.629 94.125C291.871 93.6289 292.207 93.2422 292.637 92.9648C293.07 92.6836 293.539 92.543 294.043 92.543C294.867 92.543 295.508 92.8145 295.965 93.3574C296.422 93.9004 296.65 94.6777 296.65 95.6895V96.1406H292.355C292.371 96.7656 292.553 97.2715 292.9 97.6582C293.252 98.041 293.697 98.2324 294.236 98.2324C294.619 98.2324 294.943 98.1543 295.209 97.998C295.475 97.8418 295.707 97.6348 295.906 97.377L296.568 97.8926C296.037 98.709 295.24 99.1172 294.178 99.1172ZM294.043 93.4336C293.605 93.4336 293.238 93.5938 292.941 93.9141C292.645 94.2305 292.461 94.6758 292.391 95.25H295.566V95.168C295.535 94.6172 295.387 94.1914 295.121 93.8906C294.855 93.5859 294.496 93.4336 294.043 93.4336ZM301.906 92.6602L301.936 93.3633C302.4 92.8164 303.027 92.543 303.816 92.543C304.703 92.543 305.307 92.8828 305.627 93.5625C305.838 93.2578 306.111 93.0117 306.447 92.8242C306.787 92.6367 307.188 92.543 307.648 92.543C309.039 92.543 309.746 93.2793 309.77 94.752V99H308.686V94.8164C308.686 94.3633 308.582 94.0254 308.375 93.8027C308.168 93.5762 307.82 93.4629 307.332 93.4629C306.93 93.4629 306.596 93.584 306.33 93.8262C306.064 94.0645 305.91 94.3867 305.867 94.793V99H304.777V94.8457C304.777 93.9238 304.326 93.4629 303.424 93.4629C302.713 93.4629 302.227 93.7656 301.965 94.3711V99H300.881V92.6602H301.906ZM314.041 99.1172C313.182 99.1172 312.482 98.8359 311.943 98.2734C311.404 97.707 311.135 96.9512 311.135 96.0059V95.8066C311.135 95.1777 311.254 94.6172 311.492 94.125C311.734 93.6289 312.07 93.2422 312.5 92.9648C312.934 92.6836 313.402 92.543 313.906 92.543C314.73 92.543 315.371 92.8145 315.828 93.3574C316.285 93.9004 316.514 94.6777 316.514 95.6895V96.1406H312.219C312.234 96.7656 312.416 97.2715 312.764 97.6582C313.115 98.041 313.561 98.2324 314.1 98.2324C314.482 98.2324 314.807 98.1543 315.072 97.998C315.338 97.8418 315.57 97.6348 315.77 97.377L316.432 97.8926C315.9 98.709 315.104 99.1172 314.041 99.1172ZM313.906 93.4336C313.469 93.4336 313.102 93.5938 312.805 93.9141C312.508 94.2305 312.324 94.6758 312.254 95.25H315.43V95.168C315.398 94.6172 315.25 94.1914 314.984 93.8906C314.719 93.5859 314.359 93.4336 313.906 93.4336ZM319.244 91.125V92.6602H320.428V93.498H319.244V97.4297C319.244 97.6836 319.297 97.875 319.402 98.0039C319.508 98.1289 319.688 98.1914 319.941 98.1914C320.066 98.1914 320.238 98.168 320.457 98.1211V99C320.172 99.0781 319.895 99.1172 319.625 99.1172C319.141 99.1172 318.775 98.9707 318.529 98.6777C318.283 98.3848 318.16 97.9688 318.16 97.4297V93.498H317.006V92.6602H318.16V91.125H319.244ZM324.764 93.6328C324.6 93.6055 324.422 93.5918 324.23 93.5918C323.52 93.5918 323.037 93.8945 322.783 94.5V99H321.699V92.6602H322.754L322.771 93.3926C323.127 92.8262 323.631 92.543 324.283 92.543C324.494 92.543 324.654 92.5703 324.764 92.625V93.6328ZM326.943 99H325.859V92.6602H326.943V99ZM325.771 90.9785C325.771 90.8027 325.824 90.6543 325.93 90.5332C326.039 90.4121 326.199 90.3516 326.41 90.3516C326.621 90.3516 326.781 90.4121 326.891 90.5332C327 90.6543 327.055 90.8027 327.055 90.9785C327.055 91.1543 327 91.3008 326.891 91.418C326.781 91.5352 326.621 91.5938 326.41 91.5938C326.199 91.5938 326.039 91.5352 325.93 91.418C325.824 91.3008 325.771 91.1543 325.771 90.9785ZM331.227 98.2324C331.613 98.2324 331.951 98.1152 332.24 97.8809C332.529 97.6465 332.689 97.3535 332.721 97.002H333.746C333.727 97.3652 333.602 97.7109 333.371 98.0391C333.141 98.3672 332.832 98.6289 332.445 98.8242C332.062 99.0195 331.656 99.1172 331.227 99.1172C330.363 99.1172 329.676 98.8301 329.164 98.2559C328.656 97.6777 328.402 96.8887 328.402 95.8887V95.707C328.402 95.0898 328.516 94.541 328.742 94.0605C328.969 93.5801 329.293 93.207 329.715 92.9414C330.141 92.6758 330.643 92.543 331.221 92.543C331.932 92.543 332.521 92.7559 332.99 93.1816C333.463 93.6074 333.715 94.1602 333.746 94.8398H332.721C332.689 94.4297 332.533 94.0938 332.252 93.832C331.975 93.5664 331.631 93.4336 331.221 93.4336C330.67 93.4336 330.242 93.6328 329.938 94.0312C329.637 94.4258 329.486 94.998 329.486 95.748V95.9531C329.486 96.6836 329.637 97.2461 329.938 97.6406C330.238 98.0352 330.668 98.2324 331.227 98.2324Z" fill="black"/>
<path d="M193.646 184.354C193.842 184.549 194.158 184.549 194.354 184.354L197.536 181.172C197.731 180.976 197.731 180.66 197.536 180.464C197.34 180.269 197.024 180.269 196.828 180.464L194 183.293L191.172 180.464C190.976 180.269 190.66 180.269 190.464 180.464C190.269 180.66 190.269 180.976 190.464 181.172L193.646 184.354ZM193.5 136V184H194.5V136H193.5Z" fill="black"/>
<path d="M222.354 135.646C222.158 135.451 221.842 135.451 221.646 135.646L218.464 138.828C218.269 139.024 218.269 139.34 218.464 139.536C218.66 139.731 218.976 139.731 219.172 139.536L222 136.707L224.828 139.536C225.024 139.731 225.34 139.731 225.536 139.536C225.731 139.34 225.731 139.024 225.536 138.828L222.354 135.646ZM222.5 184L222.5 136L221.5 136L221.5 184L222.5 184Z" fill="black"/>
<path d="M279.521 169.469L282.311 176.43L285.1 169.469H286.559V178H285.434V174.678L285.539 171.092L282.738 178H281.877L279.082 171.109L279.193 174.678V178H278.068V169.469H279.521ZM291.006 178.117C290.146 178.117 289.447 177.836 288.908 177.273C288.369 176.707 288.1 175.951 288.1 175.006V174.807C288.1 174.178 288.219 173.617 288.457 173.125C288.699 172.629 289.035 172.242 289.465 171.965C289.898 171.684 290.367 171.543 290.871 171.543C291.695 171.543 292.336 171.814 292.793 172.357C293.25 172.9 293.479 173.678 293.479 174.689V175.141H289.184C289.199 175.766 289.381 176.271 289.729 176.658C290.08 177.041 290.525 177.232 291.064 177.232C291.447 177.232 291.771 177.154 292.037 176.998C292.303 176.842 292.535 176.635 292.734 176.377L293.396 176.893C292.865 177.709 292.068 178.117 291.006 178.117ZM290.871 172.434C290.434 172.434 290.066 172.594 289.77 172.914C289.473 173.23 289.289 173.676 289.219 174.25H292.395V174.168C292.363 173.617 292.215 173.191 291.949 172.891C291.684 172.586 291.324 172.434 290.871 172.434ZM298.43 176.318C298.43 176.025 298.318 175.799 298.096 175.639C297.877 175.475 297.492 175.334 296.941 175.217C296.395 175.1 295.959 174.959 295.635 174.795C295.314 174.631 295.076 174.436 294.92 174.209C294.768 173.982 294.691 173.713 294.691 173.4C294.691 172.881 294.91 172.441 295.348 172.082C295.789 171.723 296.352 171.543 297.035 171.543C297.754 171.543 298.336 171.729 298.781 172.1C299.23 172.471 299.455 172.945 299.455 173.523H298.365C298.365 173.227 298.238 172.971 297.984 172.756C297.734 172.541 297.418 172.434 297.035 172.434C296.641 172.434 296.332 172.52 296.109 172.691C295.887 172.863 295.775 173.088 295.775 173.365C295.775 173.627 295.879 173.824 296.086 173.957C296.293 174.09 296.666 174.217 297.205 174.338C297.748 174.459 298.188 174.604 298.523 174.771C298.859 174.939 299.107 175.143 299.268 175.381C299.432 175.615 299.514 175.902 299.514 176.242C299.514 176.809 299.287 177.264 298.834 177.607C298.381 177.947 297.793 178.117 297.07 178.117C296.562 178.117 296.113 178.027 295.723 177.848C295.332 177.668 295.025 177.418 294.803 177.098C294.584 176.773 294.475 176.424 294.475 176.049H295.559C295.578 176.412 295.723 176.701 295.992 176.916C296.266 177.127 296.625 177.232 297.07 177.232C297.48 177.232 297.809 177.15 298.055 176.986C298.305 176.818 298.43 176.596 298.43 176.318ZM304.617 176.318C304.617 176.025 304.506 175.799 304.283 175.639C304.064 175.475 303.68 175.334 303.129 175.217C302.582 175.1 302.146 174.959 301.822 174.795C301.502 174.631 301.264 174.436 301.107 174.209C300.955 173.982 300.879 173.713 300.879 173.4C300.879 172.881 301.098 172.441 301.535 172.082C301.977 171.723 302.539 171.543 303.223 171.543C303.941 171.543 304.523 171.729 304.969 172.1C305.418 172.471 305.643 172.945 305.643 173.523H304.553C304.553 173.227 304.426 172.971 304.172 172.756C303.922 172.541 303.605 172.434 303.223 172.434C302.828 172.434 302.52 172.52 302.297 172.691C302.074 172.863 301.963 173.088 301.963 173.365C301.963 173.627 302.066 173.824 302.273 173.957C302.48 174.09 302.854 174.217 303.393 174.338C303.936 174.459 304.375 174.604 304.711 174.771C305.047 174.939 305.295 175.143 305.455 175.381C305.619 175.615 305.701 175.902 305.701 176.242C305.701 176.809 305.475 177.264 305.021 177.607C304.568 177.947 303.98 178.117 303.258 178.117C302.75 178.117 302.301 178.027 301.91 177.848C301.52 177.668 301.213 177.418 300.99 177.098C300.771 176.773 300.662 176.424 300.662 176.049H301.746C301.766 176.412 301.91 176.701 302.18 176.916C302.453 177.127 302.812 177.232 303.258 177.232C303.668 177.232 303.996 177.15 304.242 176.986C304.492 176.818 304.617 176.596 304.617 176.318ZM311.027 178C310.965 177.875 310.914 177.652 310.875 177.332C310.371 177.855 309.77 178.117 309.07 178.117C308.445 178.117 307.932 177.941 307.529 177.59C307.131 177.234 306.932 176.785 306.932 176.242C306.932 175.582 307.182 175.07 307.682 174.707C308.186 174.34 308.893 174.156 309.803 174.156H310.857V173.658C310.857 173.279 310.744 172.979 310.518 172.756C310.291 172.529 309.957 172.416 309.516 172.416C309.129 172.416 308.805 172.514 308.543 172.709C308.281 172.904 308.15 173.141 308.15 173.418H307.061C307.061 173.102 307.172 172.797 307.395 172.504C307.621 172.207 307.926 171.973 308.309 171.801C308.695 171.629 309.119 171.543 309.58 171.543C310.311 171.543 310.883 171.727 311.297 172.094C311.711 172.457 311.926 172.959 311.941 173.6V176.518C311.941 177.1 312.016 177.562 312.164 177.906V178H311.027ZM309.229 177.174C309.568 177.174 309.891 177.086 310.195 176.91C310.5 176.734 310.721 176.506 310.857 176.225V174.924H310.008C308.68 174.924 308.016 175.312 308.016 176.09C308.016 176.43 308.129 176.695 308.355 176.887C308.582 177.078 308.873 177.174 309.229 177.174ZM313.383 174.777C313.383 173.789 313.611 173.004 314.068 172.422C314.525 171.836 315.131 171.543 315.885 171.543C316.658 171.543 317.262 171.816 317.695 172.363L317.748 171.66H318.738V177.848C318.738 178.668 318.494 179.314 318.006 179.787C317.521 180.26 316.869 180.496 316.049 180.496C315.592 180.496 315.145 180.398 314.707 180.203C314.27 180.008 313.936 179.74 313.705 179.4L314.268 178.75C314.732 179.324 315.301 179.611 315.973 179.611C316.5 179.611 316.91 179.463 317.203 179.166C317.5 178.869 317.648 178.451 317.648 177.912V177.367C317.215 177.867 316.623 178.117 315.873 178.117C315.131 178.117 314.529 177.818 314.068 177.221C313.611 176.623 313.383 175.809 313.383 174.777ZM314.473 174.9C314.473 175.615 314.619 176.178 314.912 176.588C315.205 176.994 315.615 177.197 316.143 177.197C316.826 177.197 317.328 176.887 317.648 176.266V173.371C317.316 172.766 316.818 172.463 316.154 172.463C315.627 172.463 315.215 172.668 314.918 173.078C314.621 173.488 314.473 174.096 314.473 174.9ZM323.01 178.117C322.15 178.117 321.451 177.836 320.912 177.273C320.373 176.707 320.104 175.951 320.104 175.006V174.807C320.104 174.178 320.223 173.617 320.461 173.125C320.703 172.629 321.039 172.242 321.469 171.965C321.902 171.684 322.371 171.543 322.875 171.543C323.699 171.543 324.34 171.814 324.797 172.357C325.254 172.9 325.482 173.678 325.482 174.689V175.141H321.188C321.203 175.766 321.385 176.271 321.732 176.658C322.084 177.041 322.529 177.232 323.068 177.232C323.451 177.232 323.775 177.154 324.041 176.998C324.307 176.842 324.539 176.635 324.738 176.377L325.4 176.893C324.869 177.709 324.072 178.117 323.01 178.117ZM322.875 172.434C322.438 172.434 322.07 172.594 321.773 172.914C321.477 173.23 321.293 173.676 321.223 174.25H324.398V174.168C324.367 173.617 324.219 173.191 323.953 172.891C323.688 172.586 323.328 172.434 322.875 172.434ZM263.842 191.232C264.229 191.232 264.566 191.115 264.855 190.881C265.145 190.646 265.305 190.354 265.336 190.002H266.361C266.342 190.365 266.217 190.711 265.986 191.039C265.756 191.367 265.447 191.629 265.061 191.824C264.678 192.02 264.271 192.117 263.842 192.117C262.979 192.117 262.291 191.83 261.779 191.256C261.271 190.678 261.018 189.889 261.018 188.889V188.707C261.018 188.09 261.131 187.541 261.357 187.061C261.584 186.58 261.908 186.207 262.33 185.941C262.756 185.676 263.258 185.543 263.836 185.543C264.547 185.543 265.137 185.756 265.605 186.182C266.078 186.607 266.33 187.16 266.361 187.84H265.336C265.305 187.43 265.148 187.094 264.867 186.832C264.59 186.566 264.246 186.434 263.836 186.434C263.285 186.434 262.857 186.633 262.553 187.031C262.252 187.426 262.102 187.998 262.102 188.748V188.953C262.102 189.684 262.252 190.246 262.553 190.641C262.854 191.035 263.283 191.232 263.842 191.232ZM268.664 186.428C269.145 185.838 269.77 185.543 270.539 185.543C271.879 185.543 272.555 186.299 272.566 187.811V192H271.482V187.805C271.479 187.348 271.373 187.01 271.166 186.791C270.963 186.572 270.645 186.463 270.211 186.463C269.859 186.463 269.551 186.557 269.285 186.744C269.02 186.932 268.812 187.178 268.664 187.482V192H267.58V183H268.664V186.428ZM278.104 192C278.041 191.875 277.99 191.652 277.951 191.332C277.447 191.855 276.846 192.117 276.146 192.117C275.521 192.117 275.008 191.941 274.605 191.59C274.207 191.234 274.008 190.785 274.008 190.242C274.008 189.582 274.258 189.07 274.758 188.707C275.262 188.34 275.969 188.156 276.879 188.156H277.934V187.658C277.934 187.279 277.82 186.979 277.594 186.756C277.367 186.529 277.033 186.416 276.592 186.416C276.205 186.416 275.881 186.514 275.619 186.709C275.357 186.904 275.227 187.141 275.227 187.418H274.137C274.137 187.102 274.248 186.797 274.471 186.504C274.697 186.207 275.002 185.973 275.385 185.801C275.771 185.629 276.195 185.543 276.656 185.543C277.387 185.543 277.959 185.727 278.373 186.094C278.787 186.457 279.002 186.959 279.018 187.6V190.518C279.018 191.1 279.092 191.562 279.24 191.906V192H278.104ZM276.305 191.174C276.645 191.174 276.967 191.086 277.271 190.91C277.576 190.734 277.797 190.506 277.934 190.225V188.924H277.084C275.756 188.924 275.092 189.312 275.092 190.09C275.092 190.43 275.205 190.695 275.432 190.887C275.658 191.078 275.949 191.174 276.305 191.174ZM281.742 185.66L281.777 186.457C282.262 185.848 282.895 185.543 283.676 185.543C285.016 185.543 285.691 186.299 285.703 187.811V192H284.619V187.805C284.615 187.348 284.51 187.01 284.303 186.791C284.1 186.572 283.781 186.463 283.348 186.463C282.996 186.463 282.688 186.557 282.422 186.744C282.156 186.932 281.949 187.178 281.801 187.482V192H280.717V185.66H281.742ZM288.363 185.66L288.398 186.457C288.883 185.848 289.516 185.543 290.297 185.543C291.637 185.543 292.312 186.299 292.324 187.811V192H291.24V187.805C291.236 187.348 291.131 187.01 290.924 186.791C290.721 186.572 290.402 186.463 289.969 186.463C289.617 186.463 289.309 186.557 289.043 186.744C288.777 186.932 288.57 187.178 288.422 187.482V192H287.338V185.66H288.363ZM296.59 192.117C295.73 192.117 295.031 191.836 294.492 191.273C293.953 190.707 293.684 189.951 293.684 189.006V188.807C293.684 188.178 293.803 187.617 294.041 187.125C294.283 186.629 294.619 186.242 295.049 185.965C295.482 185.684 295.951 185.543 296.455 185.543C297.279 185.543 297.92 185.814 298.377 186.357C298.834 186.9 299.062 187.678 299.062 188.689V189.141H294.768C294.783 189.766 294.965 190.271 295.312 190.658C295.664 191.041 296.109 191.232 296.648 191.232C297.031 191.232 297.355 191.154 297.621 190.998C297.887 190.842 298.119 190.635 298.318 190.377L298.98 190.893C298.449 191.709 297.652 192.117 296.59 192.117ZM296.455 186.434C296.018 186.434 295.65 186.594 295.354 186.914C295.057 187.23 294.873 187.676 294.803 188.25H297.979V188.168C297.947 187.617 297.799 187.191 297.533 186.891C297.268 186.586 296.908 186.434 296.455 186.434ZM301.5 192H300.416V183H301.5V192ZM305.93 188.771C305.93 188.15 306.051 187.592 306.293 187.096C306.539 186.6 306.879 186.217 307.312 185.947C307.75 185.678 308.248 185.543 308.807 185.543C309.67 185.543 310.367 185.842 310.898 186.439C311.434 187.037 311.701 187.832 311.701 188.824V188.9C311.701 189.518 311.582 190.072 311.344 190.564C311.109 191.053 310.771 191.434 310.33 191.707C309.893 191.98 309.389 192.117 308.818 192.117C307.959 192.117 307.262 191.818 306.727 191.221C306.195 190.623 305.93 189.832 305.93 188.848V188.771ZM307.02 188.9C307.02 189.604 307.182 190.168 307.506 190.594C307.834 191.02 308.271 191.232 308.818 191.232C309.369 191.232 309.807 191.018 310.131 190.588C310.455 190.154 310.617 189.549 310.617 188.771C310.617 188.076 310.451 187.514 310.119 187.084C309.791 186.65 309.354 186.434 308.807 186.434C308.271 186.434 307.84 186.646 307.512 187.072C307.184 187.498 307.02 188.107 307.02 188.9ZM316.125 186.633C315.961 186.605 315.783 186.592 315.592 186.592C314.881 186.592 314.398 186.895 314.145 187.5V192H313.061V185.66H314.115L314.133 186.393C314.488 185.826 314.992 185.543 315.645 185.543C315.855 185.543 316.016 185.57 316.125 185.625V186.633ZM324.018 191.373C323.596 191.869 322.977 192.117 322.16 192.117C321.484 192.117 320.969 191.922 320.613 191.531C320.262 191.137 320.084 190.555 320.08 189.785V185.66H321.164V189.756C321.164 190.717 321.555 191.197 322.336 191.197C323.164 191.197 323.715 190.889 323.988 190.271V185.66H325.072V192H324.041L324.018 191.373ZM330.416 190.318C330.416 190.025 330.305 189.799 330.082 189.639C329.863 189.475 329.479 189.334 328.928 189.217C328.381 189.1 327.945 188.959 327.621 188.795C327.301 188.631 327.062 188.436 326.906 188.209C326.754 187.982 326.678 187.713 326.678 187.4C326.678 186.881 326.896 186.441 327.334 186.082C327.775 185.723 328.338 185.543 329.021 185.543C329.74 185.543 330.322 185.729 330.768 186.1C331.217 186.471 331.441 186.945 331.441 187.523H330.352C330.352 187.227 330.225 186.971 329.971 186.756C329.721 186.541 329.404 186.434 329.021 186.434C328.627 186.434 328.318 186.52 328.096 186.691C327.873 186.863 327.762 187.088 327.762 187.365C327.762 187.627 327.865 187.824 328.072 187.957C328.279 188.09 328.652 188.217 329.191 188.338C329.734 188.459 330.174 188.604 330.51 188.771C330.846 188.939 331.094 189.143 331.254 189.381C331.418 189.615 331.5 189.902 331.5 190.242C331.5 190.809 331.273 191.264 330.82 191.607C330.367 191.947 329.779 192.117 329.057 192.117C328.549 192.117 328.1 192.027 327.709 191.848C327.318 191.668 327.012 191.418 326.789 191.098C326.57 190.773 326.461 190.424 326.461 190.049H327.545C327.564 190.412 327.709 190.701 327.979 190.916C328.252 191.127 328.611 191.232 329.057 191.232C329.467 191.232 329.795 191.15 330.041 190.986C330.291 190.818 330.416 190.596 330.416 190.318ZM335.543 192.117C334.684 192.117 333.984 191.836 333.445 191.273C332.906 190.707 332.637 189.951 332.637 189.006V188.807C332.637 188.178 332.756 187.617 332.994 187.125C333.236 186.629 333.572 186.242 334.002 185.965C334.436 185.684 334.904 185.543 335.408 185.543C336.232 185.543 336.873 185.814 337.33 186.357C337.787 186.9 338.016 187.678 338.016 188.689V189.141H333.721C333.736 189.766 333.918 190.271 334.266 190.658C334.617 191.041 335.062 191.232 335.602 191.232C335.984 191.232 336.309 191.154 336.574 190.998C336.84 190.842 337.072 190.635 337.271 190.377L337.934 190.893C337.402 191.709 336.605 192.117 335.543 192.117ZM335.408 186.434C334.971 186.434 334.604 186.594 334.307 186.914C334.01 187.23 333.826 187.676 333.756 188.25H336.932V188.168C336.9 187.617 336.752 187.191 336.486 186.891C336.221 186.586 335.861 186.434 335.408 186.434ZM342.34 186.633C342.176 186.605 341.998 186.592 341.807 186.592C341.096 186.592 340.613 186.895 340.359 187.5V192H339.275V185.66H340.33L340.348 186.393C340.703 185.826 341.207 185.543 341.859 185.543C342.07 185.543 342.23 185.57 342.34 185.625V186.633Z" fill="black"/>
<path d="M277.254 222.469V228.27C277.25 229.074 276.996 229.732 276.492 230.244C275.992 230.756 275.312 231.043 274.453 231.105L274.154 231.117C273.221 231.117 272.477 230.865 271.922 230.361C271.367 229.857 271.086 229.164 271.078 228.281V222.469H272.191V228.246C272.191 228.863 272.361 229.344 272.701 229.688C273.041 230.027 273.525 230.197 274.154 230.197C274.791 230.197 275.277 230.027 275.613 229.688C275.953 229.348 276.123 228.869 276.123 228.252V222.469H277.254ZM282.551 229.318C282.551 229.025 282.439 228.799 282.217 228.639C281.998 228.475 281.613 228.334 281.062 228.217C280.516 228.1 280.08 227.959 279.756 227.795C279.436 227.631 279.197 227.436 279.041 227.209C278.889 226.982 278.812 226.713 278.812 226.4C278.812 225.881 279.031 225.441 279.469 225.082C279.91 224.723 280.473 224.543 281.156 224.543C281.875 224.543 282.457 224.729 282.902 225.1C283.352 225.471 283.576 225.945 283.576 226.523H282.486C282.486 226.227 282.359 225.971 282.105 225.756C281.855 225.541 281.539 225.434 281.156 225.434C280.762 225.434 280.453 225.52 280.23 225.691C280.008 225.863 279.896 226.088 279.896 226.365C279.896 226.627 280 226.824 280.207 226.957C280.414 227.09 280.787 227.217 281.326 227.338C281.869 227.459 282.309 227.604 282.645 227.771C282.98 227.939 283.229 228.143 283.389 228.381C283.553 228.615 283.635 228.902 283.635 229.242C283.635 229.809 283.408 230.264 282.955 230.607C282.502 230.947 281.914 231.117 281.191 231.117C280.684 231.117 280.234 231.027 279.844 230.848C279.453 230.668 279.146 230.418 278.924 230.098C278.705 229.773 278.596 229.424 278.596 229.049H279.68C279.699 229.412 279.844 229.701 280.113 229.916C280.387 230.127 280.746 230.232 281.191 230.232C281.602 230.232 281.93 230.15 282.176 229.986C282.426 229.818 282.551 229.596 282.551 229.318ZM287.678 231.117C286.818 231.117 286.119 230.836 285.58 230.273C285.041 229.707 284.771 228.951 284.771 228.006V227.807C284.771 227.178 284.891 226.617 285.129 226.125C285.371 225.629 285.707 225.242 286.137 224.965C286.57 224.684 287.039 224.543 287.543 224.543C288.367 224.543 289.008 224.814 289.465 225.357C289.922 225.9 290.15 226.678 290.15 227.689V228.141H285.855C285.871 228.766 286.053 229.271 286.4 229.658C286.752 230.041 287.197 230.232 287.736 230.232C288.119 230.232 288.443 230.154 288.709 229.998C288.975 229.842 289.207 229.635 289.406 229.377L290.068 229.893C289.537 230.709 288.74 231.117 287.678 231.117ZM287.543 225.434C287.105 225.434 286.738 225.594 286.441 225.914C286.145 226.23 285.961 226.676 285.891 227.25H289.066V227.168C289.035 226.617 288.887 226.191 288.621 225.891C288.355 225.586 287.996 225.434 287.543 225.434ZM294.475 225.633C294.311 225.605 294.133 225.592 293.941 225.592C293.23 225.592 292.748 225.895 292.494 226.5V231H291.41V224.66H292.465L292.482 225.393C292.838 224.826 293.342 224.543 293.994 224.543C294.205 224.543 294.365 224.57 294.475 224.625V225.633ZM301.084 231.117C300.225 231.117 299.525 230.836 298.986 230.273C298.447 229.707 298.178 228.951 298.178 228.006V227.807C298.178 227.178 298.297 226.617 298.535 226.125C298.777 225.629 299.113 225.242 299.543 224.965C299.977 224.684 300.445 224.543 300.949 224.543C301.773 224.543 302.414 224.814 302.871 225.357C303.328 225.9 303.557 226.678 303.557 227.689V228.141H299.262C299.277 228.766 299.459 229.271 299.807 229.658C300.158 230.041 300.604 230.232 301.143 230.232C301.525 230.232 301.85 230.154 302.115 229.998C302.381 229.842 302.613 229.635 302.812 229.377L303.475 229.893C302.943 230.709 302.146 231.117 301.084 231.117ZM300.949 225.434C300.512 225.434 300.145 225.594 299.848 225.914C299.551 226.23 299.367 226.676 299.297 227.25H302.473V227.168C302.441 226.617 302.293 226.191 302.027 225.891C301.762 225.586 301.402 225.434 300.949 225.434ZM306.826 229.529L308.396 224.66H309.504L307.23 231H306.404L304.107 224.66H305.215L306.826 229.529ZM313.096 231.117C312.236 231.117 311.537 230.836 310.998 230.273C310.459 229.707 310.189 228.951 310.189 228.006V227.807C310.189 227.178 310.309 226.617 310.547 226.125C310.789 225.629 311.125 225.242 311.555 224.965C311.988 224.684 312.457 224.543 312.961 224.543C313.785 224.543 314.426 224.814 314.883 225.357C315.34 225.9 315.568 226.678 315.568 227.689V228.141H311.273C311.289 228.766 311.471 229.271 311.818 229.658C312.17 230.041 312.615 230.232 313.154 230.232C313.537 230.232 313.861 230.154 314.127 229.998C314.393 229.842 314.625 229.635 314.824 229.377L315.486 229.893C314.955 230.709 314.158 231.117 313.096 231.117ZM312.961 225.434C312.523 225.434 312.156 225.594 311.859 225.914C311.562 226.23 311.379 226.676 311.309 227.25H314.484V227.168C314.453 226.617 314.305 226.191 314.039 225.891C313.773 225.586 313.414 225.434 312.961 225.434ZM317.854 224.66L317.889 225.457C318.373 224.848 319.006 224.543 319.787 224.543C321.127 224.543 321.803 225.299 321.814 226.811V231H320.73V226.805C320.727 226.348 320.621 226.01 320.414 225.791C320.211 225.572 319.893 225.463 319.459 225.463C319.107 225.463 318.799 225.557 318.533 225.744C318.268 225.932 318.061 226.178 317.912 226.482V231H316.828V224.66H317.854ZM324.92 223.125V224.66H326.104V225.498H324.92V229.43C324.92 229.684 324.973 229.875 325.078 230.004C325.184 230.129 325.363 230.191 325.617 230.191C325.742 230.191 325.914 230.168 326.133 230.121V231C325.848 231.078 325.57 231.117 325.301 231.117C324.816 231.117 324.451 230.971 324.205 230.678C323.959 230.385 323.836 229.969 323.836 229.43V225.498H322.682V224.66H323.836V223.125H324.92ZM331.066 229.318C331.066 229.025 330.955 228.799 330.732 228.639C330.514 228.475 330.129 228.334 329.578 228.217C329.031 228.1 328.596 227.959 328.271 227.795C327.951 227.631 327.713 227.436 327.557 227.209C327.404 226.982 327.328 226.713 327.328 226.4C327.328 225.881 327.547 225.441 327.984 225.082C328.426 224.723 328.988 224.543 329.672 224.543C330.391 224.543 330.973 224.729 331.418 225.1C331.867 225.471 332.092 225.945 332.092 226.523H331.002C331.002 226.227 330.875 225.971 330.621 225.756C330.371 225.541 330.055 225.434 329.672 225.434C329.277 225.434 328.969 225.52 328.746 225.691C328.523 225.863 328.412 226.088 328.412 226.365C328.412 226.627 328.516 226.824 328.723 226.957C328.93 227.09 329.303 227.217 329.842 227.338C330.385 227.459 330.824 227.604 331.16 227.771C331.496 227.939 331.744 228.143 331.904 228.381C332.068 228.615 332.15 228.902 332.15 229.242C332.15 229.809 331.924 230.264 331.471 230.607C331.018 230.947 330.43 231.117 329.707 231.117C329.199 231.117 328.75 231.027 328.359 230.848C327.969 230.668 327.662 230.418 327.439 230.098C327.221 229.773 327.111 229.424 327.111 229.049H328.195C328.215 229.412 328.359 229.701 328.629 229.916C328.902 230.127 329.262 230.232 329.707 230.232C330.117 230.232 330.445 230.15 330.691 229.986C330.941 229.818 331.066 229.596 331.066 229.318Z" fill="black"/>
<path d="M545.058 176.229C550.635 168.319 562.365 168.319 567.942 176.229L595.935 215.933C602.473 225.207 595.84 238 584.492 238H528.508C517.16 238 510.527 225.207 517.065 215.933L545.058 176.229Z" fill="#C4C4C4"/>
<path d="M544.623 212H543.492V208.057H539.191V212H538.066V203.469H539.191V207.137H543.492V203.469H544.623V212ZM550.365 211.373C549.943 211.869 549.324 212.117 548.508 212.117C547.832 212.117 547.316 211.922 546.961 211.531C546.609 211.137 546.432 210.555 546.428 209.785V205.66H547.512V209.756C547.512 210.717 547.902 211.197 548.684 211.197C549.512 211.197 550.062 210.889 550.336 210.271V205.66H551.42V212H550.389L550.365 211.373ZM554.092 205.66L554.121 206.363C554.586 205.816 555.213 205.543 556.002 205.543C556.889 205.543 557.492 205.883 557.812 206.562C558.023 206.258 558.297 206.012 558.633 205.824C558.973 205.637 559.373 205.543 559.834 205.543C561.225 205.543 561.932 206.279 561.955 207.752V212H560.871V207.816C560.871 207.363 560.768 207.025 560.561 206.803C560.354 206.576 560.006 206.463 559.518 206.463C559.115 206.463 558.781 206.584 558.516 206.826C558.25 207.064 558.096 207.387 558.053 207.793V212H556.963V207.846C556.963 206.924 556.512 206.463 555.609 206.463C554.898 206.463 554.412 206.766 554.15 207.371V212H553.066V205.66H554.092ZM567.51 212C567.447 211.875 567.396 211.652 567.357 211.332C566.854 211.855 566.252 212.117 565.553 212.117C564.928 212.117 564.414 211.941 564.012 211.59C563.613 211.234 563.414 210.785 563.414 210.242C563.414 209.582 563.664 209.07 564.164 208.707C564.668 208.34 565.375 208.156 566.285 208.156H567.34V207.658C567.34 207.279 567.227 206.979 567 206.756C566.773 206.529 566.439 206.416 565.998 206.416C565.611 206.416 565.287 206.514 565.025 206.709C564.764 206.904 564.633 207.141 564.633 207.418H563.543C563.543 207.102 563.654 206.797 563.877 206.504C564.104 206.207 564.408 205.973 564.791 205.801C565.178 205.629 565.602 205.543 566.062 205.543C566.793 205.543 567.365 205.727 567.779 206.094C568.193 206.457 568.408 206.959 568.424 207.6V210.518C568.424 211.1 568.498 211.562 568.646 211.906V212H567.51ZM565.711 211.174C566.051 211.174 566.373 211.086 566.678 210.91C566.982 210.734 567.203 210.506 567.34 210.225V208.924H566.49C565.162 208.924 564.498 209.312 564.498 210.09C564.498 210.43 564.611 210.695 564.838 210.887C565.064 211.078 565.355 211.174 565.711 211.174ZM571.148 205.66L571.184 206.457C571.668 205.848 572.301 205.543 573.082 205.543C574.422 205.543 575.098 206.299 575.109 207.811V212H574.025V207.805C574.021 207.348 573.916 207.01 573.709 206.791C573.506 206.572 573.188 206.463 572.754 206.463C572.402 206.463 572.094 206.557 571.828 206.744C571.562 206.932 571.355 207.178 571.207 207.482V212H570.123V205.66H571.148Z" fill="black"/>
<path d="M528.354 198.354C528.549 198.158 528.549 197.842 528.354 197.646L525.172 194.464C524.976 194.269 524.66 194.269 524.464 194.464C524.269 194.66 524.269 194.976 524.464 195.172L527.293 198L524.464 200.828C524.269 201.024 524.269 201.34 524.464 201.536C524.66 201.731 524.976 201.731 525.172 201.536L528.354 198.354ZM449 198.5H528V197.5H449V198.5Z" fill="black"/>
</svg>
