<svg width="557" height="271" viewBox="0 0 557 271" fill="none" xmlns="http://www.w3.org/2000/svg">
<rect y="77" width="69" height="42" fill="#C4C4C4"/>
<path d="M15.2891 100.881C15 101.295 14.5957 101.605 14.0762 101.812C13.5605 102.016 12.959 102.117 12.2715 102.117C11.5762 102.117 10.959 101.955 10.4199 101.631C9.88086 101.303 9.46289 100.838 9.16602 100.236C8.87305 99.6348 8.72266 98.9375 8.71484 98.1445V97.4004C8.71484 96.1152 9.01367 95.1191 9.61133 94.4121C10.2129 93.7051 11.0566 93.3516 12.1426 93.3516C13.0332 93.3516 13.75 93.5801 14.293 94.0371C14.8359 94.4902 15.168 95.1348 15.2891 95.9707H14.1641C13.9531 94.8418 13.2812 94.2773 12.1484 94.2773C11.3945 94.2773 10.8223 94.543 10.4316 95.0742C10.0449 95.6016 9.84961 96.3672 9.8457 97.3711V98.0684C9.8457 99.0254 10.0645 99.7871 10.502 100.354C10.9395 100.916 11.5312 101.197 12.2773 101.197C12.6992 101.197 13.0684 101.15 13.3848 101.057C13.7012 100.963 13.9629 100.805 14.1699 100.582V98.666H12.1953V97.752H15.2891V100.881ZM18.1777 102H17.0938V95.6602H18.1777V102ZM17.0059 93.9785C17.0059 93.8027 17.0586 93.6543 17.1641 93.5332C17.2734 93.4121 17.4336 93.3516 17.6445 93.3516C17.8555 93.3516 18.0156 93.4121 18.125 93.5332C18.2344 93.6543 18.2891 93.8027 18.2891 93.9785C18.2891 94.1543 18.2344 94.3008 18.125 94.418C18.0156 94.5352 17.8555 94.5938 17.6445 94.5938C17.4336 94.5938 17.2734 94.5352 17.1641 94.418C17.0586 94.3008 17.0059 94.1543 17.0059 93.9785ZM21.3887 94.125V95.6602H22.5723V96.498H21.3887V100.43C21.3887 100.684 21.4414 100.875 21.5469 101.004C21.6523 101.129 21.832 101.191 22.0859 101.191C22.2109 101.191 22.3828 101.168 22.6016 101.121V102C22.3164 102.078 22.0391 102.117 21.7695 102.117C21.2852 102.117 20.9199 101.971 20.6738 101.678C20.4277 101.385 20.3047 100.969 20.3047 100.43V96.498H19.1504V95.6602H20.3047V94.125H21.3887ZM24.9277 96.4277C25.4082 95.8379 26.0332 95.543 26.8027 95.543C28.1426 95.543 28.8184 96.2988 28.8301 97.8105V102H27.7461V97.8047C27.7422 97.3477 27.6367 97.0098 27.4297 96.791C27.2266 96.5723 26.9082 96.4629 26.4746 96.4629C26.123 96.4629 25.8145 96.5566 25.5488 96.7441C25.2832 96.9316 25.0762 97.1777 24.9277 97.4824V102H23.8438V93H24.9277V96.4277ZM34.3672 101.373C33.9453 101.869 33.3262 102.117 32.5098 102.117C31.834 102.117 31.3184 101.922 30.9629 101.531C30.6113 101.137 30.4336 100.555 30.4297 99.7852V95.6602H31.5137V99.7559C31.5137 100.717 31.9043 101.197 32.6855 101.197C33.5137 101.197 34.0645 100.889 34.3379 100.271V95.6602H35.4219V102H34.3906L34.3672 101.373ZM42.4414 98.9004C42.4414 99.8691 42.2188 100.648 41.7734 101.238C41.3281 101.824 40.7305 102.117 39.9805 102.117C39.1797 102.117 38.5605 101.834 38.123 101.268L38.0703 102H37.0742V93H38.1582V96.3574C38.5957 95.8145 39.1992 95.543 39.9688 95.543C40.7383 95.543 41.3418 95.834 41.7793 96.416C42.2207 96.998 42.4414 97.7949 42.4414 98.8066V98.9004ZM41.3574 98.7773C41.3574 98.0391 41.2148 97.4688 40.9297 97.0664C40.6445 96.6641 40.2344 96.4629 39.6992 96.4629C38.9844 96.4629 38.4707 96.7949 38.1582 97.459V100.201C38.4902 100.865 39.0078 101.197 39.7109 101.197C40.2305 101.197 40.6348 100.996 40.9238 100.594C41.2129 100.191 41.3574 99.5859 41.3574 98.7773ZM53.2344 99.293C53.1289 100.195 52.7949 100.893 52.2324 101.385C51.6738 101.873 50.9297 102.117 50 102.117C48.9922 102.117 48.1836 101.756 47.5742 101.033C46.9688 100.311 46.666 99.3438 46.666 98.1328V97.3125C46.666 96.5195 46.8066 95.8223 47.0879 95.2207C47.373 94.6191 47.7754 94.1582 48.2949 93.8379C48.8145 93.5137 49.416 93.3516 50.0996 93.3516C51.0059 93.3516 51.7324 93.6055 52.2793 94.1133C52.8262 94.6172 53.1445 95.3164 53.2344 96.2109H52.1035C52.0059 95.5312 51.793 95.0391 51.4648 94.7344C51.1406 94.4297 50.6855 94.2773 50.0996 94.2773C49.3809 94.2773 48.8164 94.543 48.4062 95.0742C48 95.6055 47.7969 96.3613 47.7969 97.3418V98.168C47.7969 99.0938 47.9902 99.8301 48.377 100.377C48.7637 100.924 49.3047 101.197 50 101.197C50.625 101.197 51.1035 101.057 51.4355 100.775C51.7715 100.49 51.9941 99.9961 52.1035 99.293H53.2344ZM55.9824 102H54.8574V93.4688H55.9824V102Z" fill="black"/>
<rect x="174" y="229" width="69" height="42" fill="#C4C4C4"/>
<path d="M197.504 250.197C196.539 249.92 195.836 249.58 195.395 249.178C194.957 248.771 194.738 248.271 194.738 247.678C194.738 247.006 195.006 246.451 195.541 246.014C196.08 245.572 196.779 245.352 197.639 245.352C198.225 245.352 198.746 245.465 199.203 245.691C199.664 245.918 200.02 246.23 200.27 246.629C200.523 247.027 200.65 247.463 200.65 247.936H199.52C199.52 247.42 199.355 247.016 199.027 246.723C198.699 246.426 198.236 246.277 197.639 246.277C197.084 246.277 196.65 246.4 196.338 246.646C196.029 246.889 195.875 247.227 195.875 247.66C195.875 248.008 196.021 248.303 196.314 248.545C196.611 248.783 197.113 249.002 197.82 249.201C198.531 249.4 199.086 249.621 199.484 249.863C199.887 250.102 200.184 250.381 200.375 250.701C200.57 251.021 200.668 251.398 200.668 251.832C200.668 252.523 200.398 253.078 199.859 253.496C199.32 253.91 198.6 254.117 197.697 254.117C197.111 254.117 196.564 254.006 196.057 253.783C195.549 253.557 195.156 253.248 194.879 252.857C194.605 252.467 194.469 252.023 194.469 251.527H195.6C195.6 252.043 195.789 252.451 196.168 252.752C196.551 253.049 197.061 253.197 197.697 253.197C198.291 253.197 198.746 253.076 199.062 252.834C199.379 252.592 199.537 252.262 199.537 251.844C199.537 251.426 199.391 251.104 199.098 250.877C198.805 250.646 198.273 250.42 197.504 250.197ZM203.123 254H202.039V245H203.123V254ZM208.777 254C208.715 253.875 208.664 253.652 208.625 253.332C208.121 253.855 207.52 254.117 206.82 254.117C206.195 254.117 205.682 253.941 205.279 253.59C204.881 253.234 204.682 252.785 204.682 252.242C204.682 251.582 204.932 251.07 205.432 250.707C205.936 250.34 206.643 250.156 207.553 250.156H208.607V249.658C208.607 249.279 208.494 248.979 208.268 248.756C208.041 248.529 207.707 248.416 207.266 248.416C206.879 248.416 206.555 248.514 206.293 248.709C206.031 248.904 205.9 249.141 205.9 249.418H204.811C204.811 249.102 204.922 248.797 205.145 248.504C205.371 248.207 205.676 247.973 206.059 247.801C206.445 247.629 206.869 247.543 207.33 247.543C208.061 247.543 208.633 247.727 209.047 248.094C209.461 248.457 209.676 248.959 209.691 249.6V252.518C209.691 253.1 209.766 253.562 209.914 253.906V254H208.777ZM206.979 253.174C207.318 253.174 207.641 253.086 207.945 252.91C208.25 252.734 208.471 252.506 208.607 252.225V250.924H207.758C206.43 250.924 205.766 251.312 205.766 252.09C205.766 252.43 205.879 252.695 206.105 252.887C206.332 253.078 206.623 253.174 206.979 253.174ZM213.934 253.232C214.32 253.232 214.658 253.115 214.947 252.881C215.236 252.646 215.396 252.354 215.428 252.002H216.453C216.434 252.365 216.309 252.711 216.078 253.039C215.848 253.367 215.539 253.629 215.152 253.824C214.77 254.02 214.363 254.117 213.934 254.117C213.07 254.117 212.383 253.83 211.871 253.256C211.363 252.678 211.109 251.889 211.109 250.889V250.707C211.109 250.09 211.223 249.541 211.449 249.061C211.676 248.58 212 248.207 212.422 247.941C212.848 247.676 213.35 247.543 213.928 247.543C214.639 247.543 215.229 247.756 215.697 248.182C216.17 248.607 216.422 249.16 216.453 249.84H215.428C215.396 249.43 215.24 249.094 214.959 248.832C214.682 248.566 214.338 248.434 213.928 248.434C213.377 248.434 212.949 248.633 212.645 249.031C212.344 249.426 212.193 249.998 212.193 250.748V250.953C212.193 251.684 212.344 252.246 212.645 252.641C212.945 253.035 213.375 253.232 213.934 253.232ZM219.441 251.064L218.762 251.773V254H217.678V245H218.762V250.443L219.342 249.746L221.316 247.66H222.635L220.168 250.309L222.922 254H221.65L219.441 251.064Z" fill="black"/>
<rect x="488" y="82" width="69" height="42" fill="#C4C4C4"/>
<path d="M506.121 106.08H510.164V107H504.99V98.4688H506.121V106.08ZM510.99 103.771C510.99 103.15 511.111 102.592 511.354 102.096C511.6 101.6 511.939 101.217 512.373 100.947C512.811 100.678 513.309 100.543 513.867 100.543C514.73 100.543 515.428 100.842 515.959 101.439C516.494 102.037 516.762 102.832 516.762 103.824V103.9C516.762 104.518 516.643 105.072 516.404 105.564C516.17 106.053 515.832 106.434 515.391 106.707C514.953 106.98 514.449 107.117 513.879 107.117C513.02 107.117 512.322 106.818 511.787 106.221C511.256 105.623 510.99 104.832 510.99 103.848V103.771ZM512.08 103.9C512.08 104.604 512.242 105.168 512.566 105.594C512.895 106.02 513.332 106.232 513.879 106.232C514.43 106.232 514.867 106.018 515.191 105.588C515.516 105.154 515.678 104.549 515.678 103.771C515.678 103.076 515.512 102.514 515.18 102.084C514.852 101.65 514.414 101.434 513.867 101.434C513.332 101.434 512.9 101.646 512.572 102.072C512.244 102.498 512.08 103.107 512.08 103.9ZM517.834 103.771C517.834 103.15 517.955 102.592 518.197 102.096C518.443 101.6 518.783 101.217 519.217 100.947C519.654 100.678 520.152 100.543 520.711 100.543C521.574 100.543 522.271 100.842 522.803 101.439C523.338 102.037 523.605 102.832 523.605 103.824V103.9C523.605 104.518 523.486 105.072 523.248 105.564C523.014 106.053 522.676 106.434 522.234 106.707C521.797 106.98 521.293 107.117 520.723 107.117C519.863 107.117 519.166 106.818 518.631 106.221C518.1 105.623 517.834 104.832 517.834 103.848V103.771ZM518.924 103.9C518.924 104.604 519.086 105.168 519.41 105.594C519.738 106.02 520.176 106.232 520.723 106.232C521.273 106.232 521.711 106.018 522.035 105.588C522.359 105.154 522.521 104.549 522.521 103.771C522.521 103.076 522.355 102.514 522.023 102.084C521.695 101.65 521.258 101.434 520.711 101.434C520.176 101.434 519.744 101.646 519.416 102.072C519.088 102.498 518.924 103.107 518.924 103.9ZM526.734 104.064L526.055 104.773V107H524.971V98H526.055V103.443L526.635 102.746L528.609 100.66H529.928L527.461 103.309L530.215 107H528.943L526.734 104.064ZM533.561 107.117C532.701 107.117 532.002 106.836 531.463 106.273C530.924 105.707 530.654 104.951 530.654 104.006V103.807C530.654 103.178 530.773 102.617 531.012 102.125C531.254 101.629 531.59 101.242 532.02 100.965C532.453 100.684 532.922 100.543 533.426 100.543C534.25 100.543 534.891 100.814 535.348 101.357C535.805 101.9 536.033 102.678 536.033 103.689V104.141H531.738C531.754 104.766 531.936 105.271 532.283 105.658C532.635 106.041 533.08 106.232 533.619 106.232C534.002 106.232 534.326 106.154 534.592 105.998C534.857 105.842 535.09 105.635 535.289 105.377L535.951 105.893C535.42 106.709 534.623 107.117 533.561 107.117ZM533.426 101.434C532.988 101.434 532.621 101.594 532.324 101.914C532.027 102.23 531.844 102.676 531.773 103.25H534.949V103.168C534.918 102.617 534.77 102.191 534.504 101.891C534.238 101.586 533.879 101.434 533.426 101.434ZM540.357 101.633C540.193 101.605 540.016 101.592 539.824 101.592C539.113 101.592 538.631 101.895 538.377 102.5V107H537.293V100.66H538.348L538.365 101.393C538.721 100.826 539.225 100.543 539.877 100.543C540.088 100.543 540.248 100.57 540.357 100.625V101.633Z" fill="black"/>
<rect width="69" height="42" fill="#C4C4C4"/>
<path d="M21.6953 21.2324H18.1152V25H16.9902V16.4688H22.2754V17.3945H18.1152V20.3125H21.6953V21.2324ZM26.3652 19.6328C26.2012 19.6055 26.0234 19.5918 25.832 19.5918C25.1211 19.5918 24.6387 19.8945 24.3848 20.5V25H23.3008V18.6602H24.3555L24.373 19.3926C24.7285 18.8262 25.2324 18.543 25.8848 18.543C26.0957 18.543 26.2559 18.5703 26.3652 18.625V19.6328ZM29.8809 25.1172C29.0215 25.1172 28.3223 24.8359 27.7832 24.2734C27.2441 23.707 26.9746 22.9512 26.9746 22.0059V21.8066C26.9746 21.1777 27.0938 20.6172 27.332 20.125C27.5742 19.6289 27.9102 19.2422 28.3398 18.9648C28.7734 18.6836 29.2422 18.543 29.7461 18.543C30.5703 18.543 31.2109 18.8145 31.668 19.3574C32.125 19.9004 32.3535 20.6777 32.3535 21.6895V22.1406H28.0586C28.0742 22.7656 28.2559 23.2715 28.6035 23.6582C28.9551 24.041 29.4004 24.2324 29.9395 24.2324C30.3223 24.2324 30.6465 24.1543 30.9121 23.998C31.1777 23.8418 31.4102 23.6348 31.6094 23.377L32.2715 23.8926C31.7402 24.709 30.9434 25.1172 29.8809 25.1172ZM29.7461 19.4336C29.3086 19.4336 28.9414 19.5938 28.6445 19.9141C28.3477 20.2305 28.1641 20.6758 28.0938 21.25H31.2695V21.168C31.2383 20.6172 31.0898 20.1914 30.8242 19.8906C30.5586 19.5859 30.1992 19.4336 29.7461 19.4336ZM34.791 25H33.707V18.6602H34.791V25ZM33.6191 16.9785C33.6191 16.8027 33.6719 16.6543 33.7773 16.5332C33.8867 16.4121 34.0469 16.3516 34.2578 16.3516C34.4688 16.3516 34.6289 16.4121 34.7383 16.5332C34.8477 16.6543 34.9023 16.8027 34.9023 16.9785C34.9023 17.1543 34.8477 17.3008 34.7383 17.418C34.6289 17.5352 34.4688 17.5938 34.2578 17.5938C34.0469 17.5938 33.8867 17.5352 33.7773 17.418C33.6719 17.3008 33.6191 17.1543 33.6191 16.9785ZM36.2734 21.7773C36.2734 20.7891 36.502 20.0039 36.959 19.4219C37.416 18.8359 38.0215 18.543 38.7754 18.543C39.5488 18.543 40.1523 18.8164 40.5859 19.3633L40.6387 18.6602H41.6289V24.8477C41.6289 25.668 41.3848 26.3145 40.8965 26.7871C40.4121 27.2598 39.7598 27.4961 38.9395 27.4961C38.4824 27.4961 38.0352 27.3984 37.5977 27.2031C37.1602 27.0078 36.8262 26.7402 36.5957 26.4004L37.1582 25.75C37.623 26.3242 38.1914 26.6113 38.8633 26.6113C39.3906 26.6113 39.8008 26.4629 40.0938 26.166C40.3906 25.8691 40.5391 25.4512 40.5391 24.9121V24.3672C40.1055 24.8672 39.5137 25.1172 38.7637 25.1172C38.0215 25.1172 37.4199 24.8184 36.959 24.2207C36.502 23.623 36.2734 22.8086 36.2734 21.7773ZM37.3633 21.9004C37.3633 22.6152 37.5098 23.1777 37.8027 23.5879C38.0957 23.9941 38.5059 24.1973 39.0332 24.1973C39.7168 24.1973 40.2188 23.8867 40.5391 23.2656V20.3711C40.207 19.7656 39.709 19.4629 39.0449 19.4629C38.5176 19.4629 38.1055 19.668 37.8086 20.0781C37.5117 20.4883 37.3633 21.0957 37.3633 21.9004ZM44.3535 19.4277C44.834 18.8379 45.459 18.543 46.2285 18.543C47.5684 18.543 48.2441 19.2988 48.2559 20.8105V25H47.1719V20.8047C47.168 20.3477 47.0625 20.0098 46.8555 19.791C46.6523 19.5723 46.334 19.4629 45.9004 19.4629C45.5488 19.4629 45.2402 19.5566 44.9746 19.7441C44.709 19.9316 44.502 20.1777 44.3535 20.4824V25H43.2695V16H44.3535V19.4277ZM51.3496 17.125V18.6602H52.5332V19.498H51.3496V23.4297C51.3496 23.6836 51.4023 23.875 51.5078 24.0039C51.6133 24.1289 51.793 24.1914 52.0469 24.1914C52.1719 24.1914 52.3438 24.168 52.5625 24.1211V25C52.2773 25.0781 52 25.1172 51.7305 25.1172C51.2461 25.1172 50.8809 24.9707 50.6348 24.6777C50.3887 24.3848 50.2656 23.9688 50.2656 23.4297V19.498H49.1113V18.6602H50.2656V17.125H51.3496Z" fill="black"/>
<rect x="340" y="82" width="69" height="41" fill="#C4C4C4"/>
<path d="M350.99 106.667V98.1354H353.779C354.705 98.1354 355.4 98.3268 355.865 98.7096C356.334 99.0924 356.568 99.6588 356.568 100.409C356.568 100.807 356.455 101.161 356.229 101.469C356.002 101.774 355.693 102.01 355.303 102.178C355.764 102.307 356.127 102.553 356.393 102.917C356.662 103.276 356.797 103.706 356.797 104.206C356.797 104.971 356.549 105.573 356.053 106.01C355.557 106.448 354.855 106.667 353.949 106.667H350.99ZM352.115 102.676V105.747H353.973C354.496 105.747 354.908 105.612 355.209 105.342C355.514 105.069 355.666 104.694 355.666 104.217C355.666 103.19 355.107 102.676 353.99 102.676H352.115ZM352.115 101.774H353.814C354.307 101.774 354.699 101.651 354.992 101.405C355.289 101.159 355.438 100.825 355.438 100.403C355.438 99.9342 355.301 99.5944 355.027 99.3835C354.754 99.1686 354.338 99.0612 353.779 99.0612H352.115V101.774ZM359.475 106.667H358.391V100.327H359.475V106.667ZM358.303 98.6452C358.303 98.4694 358.355 98.321 358.461 98.1999C358.57 98.0788 358.73 98.0182 358.941 98.0182C359.152 98.0182 359.312 98.0788 359.422 98.1999C359.531 98.321 359.586 98.4694 359.586 98.6452C359.586 98.821 359.531 98.9674 359.422 99.0846C359.312 99.2018 359.152 99.2604 358.941 99.2604C358.73 99.2604 358.57 99.2018 358.461 99.0846C358.355 98.9674 358.303 98.821 358.303 98.6452ZM360.957 103.444C360.957 102.456 361.186 101.671 361.643 101.089C362.1 100.503 362.705 100.21 363.459 100.21C364.232 100.21 364.836 100.483 365.27 101.03L365.322 100.327H366.312V106.514C366.312 107.335 366.068 107.981 365.58 108.454C365.096 108.926 364.443 109.163 363.623 109.163C363.166 109.163 362.719 109.065 362.281 108.87C361.844 108.674 361.51 108.407 361.279 108.067L361.842 107.417C362.307 107.991 362.875 108.278 363.547 108.278C364.074 108.278 364.484 108.13 364.777 107.833C365.074 107.536 365.223 107.118 365.223 106.579V106.034C364.789 106.534 364.197 106.784 363.447 106.784C362.705 106.784 362.104 106.485 361.643 105.887C361.186 105.29 360.957 104.475 360.957 103.444ZM362.047 103.567C362.047 104.282 362.193 104.844 362.486 105.255C362.779 105.661 363.189 105.864 363.717 105.864C364.4 105.864 364.902 105.553 365.223 104.932V102.038C364.891 101.432 364.393 101.13 363.729 101.13C363.201 101.13 362.789 101.335 362.492 101.745C362.195 102.155 362.047 102.762 362.047 103.567ZM374.639 102.676C374.639 103.501 374.508 104.212 374.246 104.809C373.984 105.403 373.617 105.868 373.145 106.204L374.668 107.399L373.9 108.108L372.102 106.678C371.82 106.749 371.523 106.784 371.211 106.784C370.539 106.784 369.943 106.62 369.424 106.292C368.904 105.96 368.5 105.489 368.211 104.88C367.926 104.266 367.779 103.557 367.771 102.753V102.137C367.771 101.317 367.914 100.592 368.199 99.9635C368.484 99.3346 368.887 98.8542 369.406 98.5221C369.93 98.1862 370.527 98.0182 371.199 98.0182C371.887 98.0182 372.49 98.1842 373.01 98.5163C373.533 98.8483 373.936 99.3268 374.217 99.9518C374.498 100.573 374.639 101.299 374.639 102.132V102.676ZM373.514 102.126C373.514 101.122 373.312 100.348 372.91 99.8053C372.512 99.2585 371.941 98.985 371.199 98.985C370.492 98.985 369.934 99.2565 369.523 99.7995C369.117 100.339 368.908 101.089 368.896 102.049V102.676C368.896 103.653 369.1 104.423 369.506 104.985C369.916 105.548 370.484 105.829 371.211 105.829C371.938 105.829 372.5 105.565 372.898 105.038C373.297 104.507 373.502 103.747 373.514 102.758V102.126ZM380.117 106.04C379.695 106.536 379.076 106.784 378.26 106.784C377.584 106.784 377.068 106.589 376.713 106.198C376.361 105.803 376.184 105.221 376.18 104.452V100.327H377.264V104.423C377.264 105.383 377.654 105.864 378.436 105.864C379.264 105.864 379.814 105.555 380.088 104.938V100.327H381.172V106.667H380.141L380.117 106.04ZM385.455 106.784C384.596 106.784 383.896 106.503 383.357 105.94C382.818 105.374 382.549 104.618 382.549 103.673V103.473C382.549 102.844 382.668 102.284 382.906 101.792C383.148 101.296 383.484 100.909 383.914 100.632C384.348 100.35 384.816 100.21 385.32 100.21C386.145 100.21 386.785 100.481 387.242 101.024C387.699 101.567 387.928 102.344 387.928 103.356V103.807H383.633C383.648 104.432 383.83 104.938 384.178 105.325C384.529 105.708 384.975 105.899 385.514 105.899C385.896 105.899 386.221 105.821 386.486 105.665C386.752 105.508 386.984 105.301 387.184 105.044L387.846 105.559C387.314 106.376 386.518 106.784 385.455 106.784ZM385.32 101.1C384.883 101.1 384.516 101.26 384.219 101.581C383.922 101.897 383.738 102.342 383.668 102.917H386.844V102.835C386.812 102.284 386.664 101.858 386.398 101.557C386.133 101.253 385.773 101.1 385.32 101.1ZM392.252 101.299C392.088 101.272 391.91 101.258 391.719 101.258C391.008 101.258 390.525 101.561 390.271 102.167V106.667H389.188V100.327H390.242L390.26 101.059C390.615 100.493 391.119 100.21 391.771 100.21C391.982 100.21 392.143 100.237 392.252 100.292V101.299ZM395.434 105.079L396.91 100.327H398.07L395.521 107.645C395.127 108.7 394.5 109.227 393.641 109.227L393.436 109.21L393.031 109.133V108.255L393.324 108.278C393.691 108.278 393.977 108.204 394.18 108.055C394.387 107.907 394.557 107.635 394.689 107.241L394.93 106.596L392.668 100.327H393.852L395.434 105.079Z" fill="black"/>
<rect x="174" y="75" width="69" height="61" fill="#C4C4C4"/>
<path d="M188.027 98.1973C187.062 97.9199 186.359 97.5801 185.918 97.1777C185.48 96.7715 185.262 96.2715 185.262 95.6777C185.262 95.0059 185.529 94.4512 186.064 94.0137C186.604 93.5723 187.303 93.3516 188.162 93.3516C188.748 93.3516 189.27 93.4648 189.727 93.6914C190.188 93.918 190.543 94.2305 190.793 94.6289C191.047 95.0273 191.174 95.4629 191.174 95.9355H190.043C190.043 95.4199 189.879 95.0156 189.551 94.7227C189.223 94.4258 188.76 94.2773 188.162 94.2773C187.607 94.2773 187.174 94.4004 186.861 94.6465C186.553 94.8887 186.398 95.2266 186.398 95.6602C186.398 96.0078 186.545 96.3027 186.838 96.5449C187.135 96.7832 187.637 97.002 188.344 97.2012C189.055 97.4004 189.609 97.6211 190.008 97.8633C190.41 98.1016 190.707 98.3809 190.898 98.7012C191.094 99.0215 191.191 99.3984 191.191 99.832C191.191 100.523 190.922 101.078 190.383 101.496C189.844 101.91 189.123 102.117 188.221 102.117C187.635 102.117 187.088 102.006 186.58 101.783C186.072 101.557 185.68 101.248 185.402 100.857C185.129 100.467 184.992 100.023 184.992 99.5273H186.123C186.123 100.043 186.312 100.451 186.691 100.752C187.074 101.049 187.584 101.197 188.221 101.197C188.814 101.197 189.27 101.076 189.586 100.834C189.902 100.592 190.061 100.262 190.061 99.8438C190.061 99.4258 189.914 99.1035 189.621 98.877C189.328 98.6465 188.797 98.4199 188.027 98.1973ZM195.1 102.117C194.24 102.117 193.541 101.836 193.002 101.273C192.463 100.707 192.193 99.9512 192.193 99.0059V98.8066C192.193 98.1777 192.312 97.6172 192.551 97.125C192.793 96.6289 193.129 96.2422 193.559 95.9648C193.992 95.6836 194.461 95.543 194.965 95.543C195.789 95.543 196.43 95.8145 196.887 96.3574C197.344 96.9004 197.572 97.6777 197.572 98.6895V99.1406H193.277C193.293 99.7656 193.475 100.271 193.822 100.658C194.174 101.041 194.619 101.232 195.158 101.232C195.541 101.232 195.865 101.154 196.131 100.998C196.396 100.842 196.629 100.635 196.828 100.377L197.49 100.893C196.959 101.709 196.162 102.117 195.1 102.117ZM194.965 96.4336C194.527 96.4336 194.16 96.5938 193.863 96.9141C193.566 97.2305 193.383 97.6758 193.312 98.25H196.488V98.168C196.457 97.6172 196.309 97.1914 196.043 96.8906C195.777 96.5859 195.418 96.4336 194.965 96.4336ZM199.857 95.6602L199.893 96.457C200.377 95.8477 201.01 95.543 201.791 95.543C203.131 95.543 203.807 96.2988 203.818 97.8105V102H202.734V97.8047C202.73 97.3477 202.625 97.0098 202.418 96.791C202.215 96.5723 201.896 96.4629 201.463 96.4629C201.111 96.4629 200.803 96.5566 200.537 96.7441C200.271 96.9316 200.064 97.1777 199.916 97.4824V102H198.832V95.6602H199.857ZM206.924 94.125V95.6602H208.107V96.498H206.924V100.43C206.924 100.684 206.977 100.875 207.082 101.004C207.188 101.129 207.367 101.191 207.621 101.191C207.746 101.191 207.918 101.168 208.137 101.121V102C207.852 102.078 207.574 102.117 207.305 102.117C206.82 102.117 206.455 101.971 206.209 101.678C205.963 101.385 205.84 100.969 205.84 100.43V96.498H204.686V95.6602H205.84V94.125H206.924ZM212.443 96.6328C212.279 96.6055 212.102 96.5918 211.91 96.5918C211.199 96.5918 210.717 96.8945 210.463 97.5V102H209.379V95.6602H210.434L210.451 96.3926C210.807 95.8262 211.311 95.543 211.963 95.543C212.174 95.543 212.334 95.5703 212.443 95.625V96.6328ZM215.625 100.412L217.102 95.6602H218.262L215.713 102.979C215.318 104.033 214.691 104.561 213.832 104.561L213.627 104.543L213.223 104.467V103.588L213.516 103.611C213.883 103.611 214.168 103.537 214.371 103.389C214.578 103.24 214.748 102.969 214.881 102.574L215.121 101.93L212.859 95.6602H214.043L215.625 100.412ZM228.656 99.293C228.551 100.195 228.217 100.893 227.654 101.385C227.096 101.873 226.352 102.117 225.422 102.117C224.414 102.117 223.605 101.756 222.996 101.033C222.391 100.311 222.088 99.3438 222.088 98.1328V97.3125C222.088 96.5195 222.229 95.8223 222.51 95.2207C222.795 94.6191 223.197 94.1582 223.717 93.8379C224.236 93.5137 224.838 93.3516 225.521 93.3516C226.428 93.3516 227.154 93.6055 227.701 94.1133C228.248 94.6172 228.566 95.3164 228.656 96.2109H227.525C227.428 95.5312 227.215 95.0391 226.887 94.7344C226.562 94.4297 226.107 94.2773 225.521 94.2773C224.803 94.2773 224.238 94.543 223.828 95.0742C223.422 95.6055 223.219 96.3613 223.219 97.3418V98.168C223.219 99.0938 223.412 99.8301 223.799 100.377C224.186 100.924 224.727 101.197 225.422 101.197C226.047 101.197 226.525 101.057 226.857 100.775C227.193 100.49 227.416 99.9961 227.525 99.293H228.656ZM231.404 102H230.279V93.4688H231.404V102ZM184.166 108.395H181.424V116H180.305V108.395H177.568V107.469H184.166V108.395ZM184.389 112.771C184.389 112.15 184.51 111.592 184.752 111.096C184.998 110.6 185.338 110.217 185.771 109.947C186.209 109.678 186.707 109.543 187.266 109.543C188.129 109.543 188.826 109.842 189.357 110.439C189.893 111.037 190.16 111.832 190.16 112.824V112.9C190.16 113.518 190.041 114.072 189.803 114.564C189.568 115.053 189.23 115.434 188.789 115.707C188.352 115.98 187.848 116.117 187.277 116.117C186.418 116.117 185.721 115.818 185.186 115.221C184.654 114.623 184.389 113.832 184.389 112.848V112.771ZM185.479 112.9C185.479 113.604 185.641 114.168 185.965 114.594C186.293 115.02 186.73 115.232 187.277 115.232C187.828 115.232 188.266 115.018 188.59 114.588C188.914 114.154 189.076 113.549 189.076 112.771C189.076 112.076 188.91 111.514 188.578 111.084C188.25 110.65 187.812 110.434 187.266 110.434C186.73 110.434 186.299 110.646 185.971 111.072C185.643 111.498 185.479 112.107 185.479 112.9ZM191.232 112.771C191.232 112.15 191.354 111.592 191.596 111.096C191.842 110.6 192.182 110.217 192.615 109.947C193.053 109.678 193.551 109.543 194.109 109.543C194.973 109.543 195.67 109.842 196.201 110.439C196.736 111.037 197.004 111.832 197.004 112.824V112.9C197.004 113.518 196.885 114.072 196.646 114.564C196.412 115.053 196.074 115.434 195.633 115.707C195.195 115.98 194.691 116.117 194.121 116.117C193.262 116.117 192.564 115.818 192.029 115.221C191.498 114.623 191.232 113.832 191.232 112.848V112.771ZM192.322 112.9C192.322 113.604 192.484 114.168 192.809 114.594C193.137 115.02 193.574 115.232 194.121 115.232C194.672 115.232 195.109 115.018 195.434 114.588C195.758 114.154 195.92 113.549 195.92 112.771C195.92 112.076 195.754 111.514 195.422 111.084C195.094 110.65 194.656 110.434 194.109 110.434C193.574 110.434 193.143 110.646 192.814 111.072C192.486 111.498 192.322 112.107 192.322 112.9ZM199.541 116H198.457V107H199.541V116ZM202.459 116H201.375V109.66H202.459V116ZM201.287 107.979C201.287 107.803 201.34 107.654 201.445 107.533C201.555 107.412 201.715 107.352 201.926 107.352C202.137 107.352 202.297 107.412 202.406 107.533C202.516 107.654 202.57 107.803 202.57 107.979C202.57 108.154 202.516 108.301 202.406 108.418C202.297 108.535 202.137 108.594 201.926 108.594C201.715 108.594 201.555 108.535 201.445 108.418C201.34 108.301 201.287 108.154 201.287 107.979ZM205.225 109.66L205.26 110.457C205.744 109.848 206.377 109.543 207.158 109.543C208.498 109.543 209.174 110.299 209.186 111.811V116H208.102V111.805C208.098 111.348 207.992 111.01 207.785 110.791C207.582 110.572 207.264 110.463 206.83 110.463C206.479 110.463 206.17 110.557 205.904 110.744C205.639 110.932 205.432 111.178 205.283 111.482V116H204.199V109.66H205.225ZM210.562 112.777C210.562 111.789 210.791 111.004 211.248 110.422C211.705 109.836 212.311 109.543 213.064 109.543C213.838 109.543 214.441 109.816 214.875 110.363L214.928 109.66H215.918V115.848C215.918 116.668 215.674 117.314 215.186 117.787C214.701 118.26 214.049 118.496 213.229 118.496C212.771 118.496 212.324 118.398 211.887 118.203C211.449 118.008 211.115 117.74 210.885 117.4L211.447 116.75C211.912 117.324 212.48 117.611 213.152 117.611C213.68 117.611 214.09 117.463 214.383 117.166C214.68 116.869 214.828 116.451 214.828 115.912V115.367C214.395 115.867 213.803 116.117 213.053 116.117C212.311 116.117 211.709 115.818 211.248 115.221C210.791 114.623 210.562 113.809 210.562 112.777ZM211.652 112.9C211.652 113.615 211.799 114.178 212.092 114.588C212.385 114.994 212.795 115.197 213.322 115.197C214.006 115.197 214.508 114.887 214.828 114.266V111.371C214.496 110.766 213.998 110.463 213.334 110.463C212.807 110.463 212.395 110.668 212.098 111.078C211.801 111.488 211.652 112.096 211.652 112.9ZM224.449 116C224.387 115.875 224.336 115.652 224.297 115.332C223.793 115.855 223.191 116.117 222.492 116.117C221.867 116.117 221.354 115.941 220.951 115.59C220.553 115.234 220.354 114.785 220.354 114.242C220.354 113.582 220.604 113.07 221.104 112.707C221.607 112.34 222.314 112.156 223.225 112.156H224.279V111.658C224.279 111.279 224.166 110.979 223.939 110.756C223.713 110.529 223.379 110.416 222.938 110.416C222.551 110.416 222.227 110.514 221.965 110.709C221.703 110.904 221.572 111.141 221.572 111.418H220.482C220.482 111.102 220.594 110.797 220.816 110.504C221.043 110.207 221.348 109.973 221.73 109.801C222.117 109.629 222.541 109.543 223.002 109.543C223.732 109.543 224.305 109.727 224.719 110.094C225.133 110.457 225.348 110.959 225.363 111.6V114.518C225.363 115.1 225.438 115.562 225.586 115.906V116H224.449ZM222.65 115.174C222.99 115.174 223.312 115.086 223.617 114.91C223.922 114.734 224.143 114.506 224.279 114.225V112.924H223.43C222.102 112.924 221.438 113.312 221.438 114.09C221.438 114.43 221.551 114.695 221.777 114.887C222.004 115.078 222.295 115.174 222.65 115.174ZM232.418 112.9C232.418 113.865 232.197 114.643 231.756 115.232C231.314 115.822 230.717 116.117 229.963 116.117C229.193 116.117 228.588 115.873 228.146 115.385V118.438H227.062V109.66H228.053L228.105 110.363C228.547 109.816 229.16 109.543 229.945 109.543C230.707 109.543 231.309 109.83 231.75 110.404C232.195 110.979 232.418 111.777 232.418 112.801V112.9ZM231.334 112.777C231.334 112.062 231.182 111.498 230.877 111.084C230.572 110.67 230.154 110.463 229.623 110.463C228.967 110.463 228.475 110.754 228.146 111.336V114.365C228.471 114.943 228.967 115.232 229.635 115.232C230.154 115.232 230.566 115.027 230.871 114.617C231.18 114.203 231.334 113.59 231.334 112.777ZM239.156 112.9C239.156 113.865 238.936 114.643 238.494 115.232C238.053 115.822 237.455 116.117 236.701 116.117C235.932 116.117 235.326 115.873 234.885 115.385V118.438H233.801V109.66H234.791L234.844 110.363C235.285 109.816 235.898 109.543 236.684 109.543C237.445 109.543 238.047 109.83 238.488 110.404C238.934 110.979 239.156 111.777 239.156 112.801V112.9ZM238.072 112.777C238.072 112.062 237.92 111.498 237.615 111.084C237.311 110.67 236.893 110.463 236.361 110.463C235.705 110.463 235.213 110.754 234.885 111.336V114.365C235.209 114.943 235.705 115.232 236.373 115.232C236.893 115.232 237.305 115.027 237.609 114.617C237.918 114.203 238.072 113.59 238.072 112.777Z" fill="black"/>
<path d="M174.108 88.4882C174.378 88.4287 174.548 88.1618 174.488 87.8921L173.517 83.4981C173.458 83.2285 173.191 83.0582 172.921 83.1177C172.652 83.1773 172.481 83.4442 172.541 83.7138L173.404 87.6196L169.498 88.4826C169.228 88.5421 169.058 88.809 169.118 89.0787C169.177 89.3483 169.444 89.5186 169.714 89.459L174.108 88.4882ZM68.731 21.4215L173.731 88.4215L174.269 87.5785L69.269 20.5785L68.731 21.4215Z" fill="black"/>
<path d="M340.354 105.354C340.549 105.158 340.549 104.842 340.354 104.646L337.172 101.464C336.976 101.269 336.66 101.269 336.464 101.464C336.269 101.66 336.269 101.976 336.464 102.172L339.293 105L336.464 107.828C336.269 108.024 336.269 108.34 336.464 108.536C336.66 108.731 336.976 108.731 337.172 108.536L340.354 105.354ZM243 105.5L340 105.5L340 104.5L243 104.5L243 105.5Z" fill="black"/>
<path d="M408.646 102.646C408.451 102.842 408.451 103.158 408.646 103.354L411.828 106.536C412.024 106.731 412.34 106.731 412.536 106.536C412.731 106.34 412.731 106.024 412.536 105.828L409.707 103L412.536 100.172C412.731 99.9763 412.731 99.6597 412.536 99.4645C412.34 99.2692 412.024 99.2692 411.828 99.4645L408.646 102.646ZM488 102.5L409 102.5V103.5L488 103.5V102.5Z" fill="black"/>
<path d="M174.36 96.3468C174.552 96.1478 174.546 95.8313 174.347 95.6398L171.105 92.519C170.906 92.3275 170.589 92.3335 170.398 92.5324C170.206 92.7314 170.212 93.0479 170.411 93.2394L173.293 96.0135L170.519 98.8952C170.327 99.0942 170.333 99.4107 170.532 99.6022C170.731 99.7937 171.048 99.7877 171.239 99.5888L174.36 96.3468ZM69.0095 98.4999L174.01 96.4999L173.99 95.5001L68.9905 97.5001L69.0095 98.4999Z" fill="black"/>
<path d="M260.504 96.1973C259.539 95.9199 258.836 95.5801 258.395 95.1777C257.957 94.7715 257.738 94.2715 257.738 93.6777C257.738 93.0059 258.006 92.4512 258.541 92.0137C259.08 91.5723 259.779 91.3516 260.639 91.3516C261.225 91.3516 261.746 91.4648 262.203 91.6914C262.664 91.918 263.02 92.2305 263.27 92.6289C263.523 93.0273 263.65 93.4629 263.65 93.9355H262.52C262.52 93.4199 262.355 93.0156 262.027 92.7227C261.699 92.4258 261.236 92.2773 260.639 92.2773C260.084 92.2773 259.65 92.4004 259.338 92.6465C259.029 92.8887 258.875 93.2266 258.875 93.6602C258.875 94.0078 259.021 94.3027 259.314 94.5449C259.611 94.7832 260.113 95.002 260.82 95.2012C261.531 95.4004 262.086 95.6211 262.484 95.8633C262.887 96.1016 263.184 96.3809 263.375 96.7012C263.57 97.0215 263.668 97.3984 263.668 97.832C263.668 98.5234 263.398 99.0781 262.859 99.4961C262.32 99.9102 261.6 100.117 260.697 100.117C260.111 100.117 259.564 100.006 259.057 99.7832C258.549 99.5566 258.156 99.248 257.879 98.8574C257.605 98.4668 257.469 98.0234 257.469 97.5273H258.6C258.6 98.043 258.789 98.4512 259.168 98.752C259.551 99.0488 260.061 99.1973 260.697 99.1973C261.291 99.1973 261.746 99.0762 262.062 98.834C262.379 98.5918 262.537 98.2617 262.537 97.8438C262.537 97.4258 262.391 97.1035 262.098 96.877C261.805 96.6465 261.273 96.4199 260.504 96.1973ZM266.416 92.125V93.6602H267.6V94.498H266.416V98.4297C266.416 98.6836 266.469 98.875 266.574 99.0039C266.68 99.1289 266.859 99.1914 267.113 99.1914C267.238 99.1914 267.41 99.168 267.629 99.1211V100C267.344 100.078 267.066 100.117 266.797 100.117C266.312 100.117 265.947 99.9707 265.701 99.6777C265.455 99.3848 265.332 98.9688 265.332 98.4297V94.498H264.178V93.6602H265.332V92.125H266.416ZM268.467 96.7715C268.467 96.1504 268.588 95.5918 268.83 95.0957C269.076 94.5996 269.416 94.2168 269.85 93.9473C270.287 93.6777 270.785 93.543 271.344 93.543C272.207 93.543 272.904 93.8418 273.436 94.4395C273.971 95.0371 274.238 95.832 274.238 96.8242V96.9004C274.238 97.5176 274.119 98.0723 273.881 98.5645C273.646 99.0527 273.309 99.4336 272.867 99.707C272.43 99.9805 271.926 100.117 271.355 100.117C270.496 100.117 269.799 99.8184 269.264 99.2207C268.732 98.623 268.467 97.832 268.467 96.8477V96.7715ZM269.557 96.9004C269.557 97.6035 269.719 98.168 270.043 98.5938C270.371 99.0195 270.809 99.2324 271.355 99.2324C271.906 99.2324 272.344 99.0176 272.668 98.5879C272.992 98.1543 273.154 97.5488 273.154 96.7715C273.154 96.0762 272.988 95.5137 272.656 95.084C272.328 94.6504 271.891 94.4336 271.344 94.4336C270.809 94.4336 270.377 94.6465 270.049 95.0723C269.721 95.498 269.557 96.1074 269.557 96.9004ZM278.662 94.6328C278.498 94.6055 278.32 94.5918 278.129 94.5918C277.418 94.5918 276.936 94.8945 276.682 95.5V100H275.598V93.6602H276.652L276.67 94.3926C277.025 93.8262 277.529 93.543 278.182 93.543C278.393 93.543 278.553 93.5703 278.662 93.625V94.6328ZM282.178 100.117C281.318 100.117 280.619 99.8359 280.08 99.2734C279.541 98.707 279.271 97.9512 279.271 97.0059V96.8066C279.271 96.1777 279.391 95.6172 279.629 95.125C279.871 94.6289 280.207 94.2422 280.637 93.9648C281.07 93.6836 281.539 93.543 282.043 93.543C282.867 93.543 283.508 93.8145 283.965 94.3574C284.422 94.9004 284.65 95.6777 284.65 96.6895V97.1406H280.355C280.371 97.7656 280.553 98.2715 280.9 98.6582C281.252 99.041 281.697 99.2324 282.236 99.2324C282.619 99.2324 282.943 99.1543 283.209 98.998C283.475 98.8418 283.707 98.6348 283.906 98.377L284.568 98.8926C284.037 99.709 283.24 100.117 282.178 100.117ZM282.043 94.4336C281.605 94.4336 281.238 94.5938 280.941 94.9141C280.645 95.2305 280.461 95.6758 280.391 96.25H283.566V96.168C283.535 95.6172 283.387 95.1914 283.121 94.8906C282.855 94.5859 282.496 94.4336 282.043 94.4336ZM289.906 93.6602L289.936 94.3633C290.4 93.8164 291.027 93.543 291.816 93.543C292.703 93.543 293.307 93.8828 293.627 94.5625C293.838 94.2578 294.111 94.0117 294.447 93.8242C294.787 93.6367 295.188 93.543 295.648 93.543C297.039 93.543 297.746 94.2793 297.77 95.752V100H296.686V95.8164C296.686 95.3633 296.582 95.0254 296.375 94.8027C296.168 94.5762 295.82 94.4629 295.332 94.4629C294.93 94.4629 294.596 94.584 294.33 94.8262C294.064 95.0645 293.91 95.3867 293.867 95.793V100H292.777V95.8457C292.777 94.9238 292.326 94.4629 291.424 94.4629C290.713 94.4629 290.227 94.7656 289.965 95.3711V100H288.881V93.6602H289.906ZM302.041 100.117C301.182 100.117 300.482 99.8359 299.943 99.2734C299.404 98.707 299.135 97.9512 299.135 97.0059V96.8066C299.135 96.1777 299.254 95.6172 299.492 95.125C299.734 94.6289 300.07 94.2422 300.5 93.9648C300.934 93.6836 301.402 93.543 301.906 93.543C302.73 93.543 303.371 93.8145 303.828 94.3574C304.285 94.9004 304.514 95.6777 304.514 96.6895V97.1406H300.219C300.234 97.7656 300.416 98.2715 300.764 98.6582C301.115 99.041 301.561 99.2324 302.1 99.2324C302.482 99.2324 302.807 99.1543 303.072 98.998C303.338 98.8418 303.57 98.6348 303.77 98.377L304.432 98.8926C303.9 99.709 303.104 100.117 302.041 100.117ZM301.906 94.4336C301.469 94.4336 301.102 94.5938 300.805 94.9141C300.508 95.2305 300.324 95.6758 300.254 96.25H303.43V96.168C303.398 95.6172 303.25 95.1914 302.984 94.8906C302.719 94.5859 302.359 94.4336 301.906 94.4336ZM307.244 92.125V93.6602H308.428V94.498H307.244V98.4297C307.244 98.6836 307.297 98.875 307.402 99.0039C307.508 99.1289 307.688 99.1914 307.941 99.1914C308.066 99.1914 308.238 99.168 308.457 99.1211V100C308.172 100.078 307.895 100.117 307.625 100.117C307.141 100.117 306.775 99.9707 306.529 99.6777C306.283 99.3848 306.16 98.9688 306.16 98.4297V94.498H305.006V93.6602H306.16V92.125H307.244ZM312.764 94.6328C312.6 94.6055 312.422 94.5918 312.23 94.5918C311.52 94.5918 311.037 94.8945 310.783 95.5V100H309.699V93.6602H310.754L310.771 94.3926C311.127 93.8262 311.631 93.543 312.283 93.543C312.494 93.543 312.654 93.5703 312.764 93.625V94.6328ZM314.943 100H313.859V93.6602H314.943V100ZM313.771 91.9785C313.771 91.8027 313.824 91.6543 313.93 91.5332C314.039 91.4121 314.199 91.3516 314.41 91.3516C314.621 91.3516 314.781 91.4121 314.891 91.5332C315 91.6543 315.055 91.8027 315.055 91.9785C315.055 92.1543 315 92.3008 314.891 92.418C314.781 92.5352 314.621 92.5938 314.41 92.5938C314.199 92.5938 314.039 92.5352 313.93 92.418C313.824 92.3008 313.771 92.1543 313.771 91.9785ZM319.227 99.2324C319.613 99.2324 319.951 99.1152 320.24 98.8809C320.529 98.6465 320.689 98.3535 320.721 98.002H321.746C321.727 98.3652 321.602 98.7109 321.371 99.0391C321.141 99.3672 320.832 99.6289 320.445 99.8242C320.062 100.02 319.656 100.117 319.227 100.117C318.363 100.117 317.676 99.8301 317.164 99.2559C316.656 98.6777 316.402 97.8887 316.402 96.8887V96.707C316.402 96.0898 316.516 95.541 316.742 95.0605C316.969 94.5801 317.293 94.207 317.715 93.9414C318.141 93.6758 318.643 93.543 319.221 93.543C319.932 93.543 320.521 93.7559 320.99 94.1816C321.463 94.6074 321.715 95.1602 321.746 95.8398H320.721C320.689 95.4297 320.533 95.0938 320.252 94.832C319.975 94.5664 319.631 94.4336 319.221 94.4336C318.67 94.4336 318.242 94.6328 317.938 95.0312C317.637 95.4258 317.486 95.998 317.486 96.748V96.9531C317.486 97.6836 317.637 98.2461 317.938 98.6406C318.238 99.0352 318.668 99.2324 319.227 99.2324Z" fill="black"/>
<path d="M208.646 229.354C208.842 229.549 209.158 229.549 209.354 229.354L212.536 226.172C212.731 225.976 212.731 225.66 212.536 225.464C212.34 225.269 212.024 225.269 211.828 225.464L209 228.293L206.172 225.464C205.976 225.269 205.66 225.269 205.464 225.464C205.269 225.66 205.269 225.976 205.464 226.172L208.646 229.354ZM208.5 136V229H209.5V136H208.5Z" fill="black"/>
<path d="M234.521 170.469L237.311 177.43L240.1 170.469H241.559V179H240.434V175.678L240.539 172.092L237.738 179H236.877L234.082 172.109L234.193 175.678V179H233.068V170.469H234.521ZM246.006 179.117C245.146 179.117 244.447 178.836 243.908 178.273C243.369 177.707 243.1 176.951 243.1 176.006V175.807C243.1 175.178 243.219 174.617 243.457 174.125C243.699 173.629 244.035 173.242 244.465 172.965C244.898 172.684 245.367 172.543 245.871 172.543C246.695 172.543 247.336 172.814 247.793 173.357C248.25 173.9 248.479 174.678 248.479 175.689V176.141H244.184C244.199 176.766 244.381 177.271 244.729 177.658C245.08 178.041 245.525 178.232 246.064 178.232C246.447 178.232 246.771 178.154 247.037 177.998C247.303 177.842 247.535 177.635 247.734 177.377L248.396 177.893C247.865 178.709 247.068 179.117 246.006 179.117ZM245.871 173.434C245.434 173.434 245.066 173.594 244.77 173.914C244.473 174.23 244.289 174.676 244.219 175.25H247.395V175.168C247.363 174.617 247.215 174.191 246.949 173.891C246.684 173.586 246.324 173.434 245.871 173.434ZM253.43 177.318C253.43 177.025 253.318 176.799 253.096 176.639C252.877 176.475 252.492 176.334 251.941 176.217C251.395 176.1 250.959 175.959 250.635 175.795C250.314 175.631 250.076 175.436 249.92 175.209C249.768 174.982 249.691 174.713 249.691 174.4C249.691 173.881 249.91 173.441 250.348 173.082C250.789 172.723 251.352 172.543 252.035 172.543C252.754 172.543 253.336 172.729 253.781 173.1C254.23 173.471 254.455 173.945 254.455 174.523H253.365C253.365 174.227 253.238 173.971 252.984 173.756C252.734 173.541 252.418 173.434 252.035 173.434C251.641 173.434 251.332 173.52 251.109 173.691C250.887 173.863 250.775 174.088 250.775 174.365C250.775 174.627 250.879 174.824 251.086 174.957C251.293 175.09 251.666 175.217 252.205 175.338C252.748 175.459 253.188 175.604 253.523 175.771C253.859 175.939 254.107 176.143 254.268 176.381C254.432 176.615 254.514 176.902 254.514 177.242C254.514 177.809 254.287 178.264 253.834 178.607C253.381 178.947 252.793 179.117 252.07 179.117C251.562 179.117 251.113 179.027 250.723 178.848C250.332 178.668 250.025 178.418 249.803 178.098C249.584 177.773 249.475 177.424 249.475 177.049H250.559C250.578 177.412 250.723 177.701 250.992 177.916C251.266 178.127 251.625 178.232 252.07 178.232C252.48 178.232 252.809 178.15 253.055 177.986C253.305 177.818 253.43 177.596 253.43 177.318ZM259.617 177.318C259.617 177.025 259.506 176.799 259.283 176.639C259.064 176.475 258.68 176.334 258.129 176.217C257.582 176.1 257.146 175.959 256.822 175.795C256.502 175.631 256.264 175.436 256.107 175.209C255.955 174.982 255.879 174.713 255.879 174.4C255.879 173.881 256.098 173.441 256.535 173.082C256.977 172.723 257.539 172.543 258.223 172.543C258.941 172.543 259.523 172.729 259.969 173.1C260.418 173.471 260.643 173.945 260.643 174.523H259.553C259.553 174.227 259.426 173.971 259.172 173.756C258.922 173.541 258.605 173.434 258.223 173.434C257.828 173.434 257.52 173.52 257.297 173.691C257.074 173.863 256.963 174.088 256.963 174.365C256.963 174.627 257.066 174.824 257.273 174.957C257.48 175.09 257.854 175.217 258.393 175.338C258.936 175.459 259.375 175.604 259.711 175.771C260.047 175.939 260.295 176.143 260.455 176.381C260.619 176.615 260.701 176.902 260.701 177.242C260.701 177.809 260.475 178.264 260.021 178.607C259.568 178.947 258.98 179.117 258.258 179.117C257.75 179.117 257.301 179.027 256.91 178.848C256.52 178.668 256.213 178.418 255.99 178.098C255.771 177.773 255.662 177.424 255.662 177.049H256.746C256.766 177.412 256.91 177.701 257.18 177.916C257.453 178.127 257.812 178.232 258.258 178.232C258.668 178.232 258.996 178.15 259.242 177.986C259.492 177.818 259.617 177.596 259.617 177.318ZM266.027 179C265.965 178.875 265.914 178.652 265.875 178.332C265.371 178.855 264.77 179.117 264.07 179.117C263.445 179.117 262.932 178.941 262.529 178.59C262.131 178.234 261.932 177.785 261.932 177.242C261.932 176.582 262.182 176.07 262.682 175.707C263.186 175.34 263.893 175.156 264.803 175.156H265.857V174.658C265.857 174.279 265.744 173.979 265.518 173.756C265.291 173.529 264.957 173.416 264.516 173.416C264.129 173.416 263.805 173.514 263.543 173.709C263.281 173.904 263.15 174.141 263.15 174.418H262.061C262.061 174.102 262.172 173.797 262.395 173.504C262.621 173.207 262.926 172.973 263.309 172.801C263.695 172.629 264.119 172.543 264.58 172.543C265.311 172.543 265.883 172.727 266.297 173.094C266.711 173.457 266.926 173.959 266.941 174.6V177.518C266.941 178.1 267.016 178.562 267.164 178.906V179H266.027ZM264.229 178.174C264.568 178.174 264.891 178.086 265.195 177.91C265.5 177.734 265.721 177.506 265.857 177.225V175.924H265.008C263.68 175.924 263.016 176.312 263.016 177.09C263.016 177.43 263.129 177.695 263.355 177.887C263.582 178.078 263.873 178.174 264.229 178.174ZM268.383 175.777C268.383 174.789 268.611 174.004 269.068 173.422C269.525 172.836 270.131 172.543 270.885 172.543C271.658 172.543 272.262 172.816 272.695 173.363L272.748 172.66H273.738V178.848C273.738 179.668 273.494 180.314 273.006 180.787C272.521 181.26 271.869 181.496 271.049 181.496C270.592 181.496 270.145 181.398 269.707 181.203C269.27 181.008 268.936 180.74 268.705 180.4L269.268 179.75C269.732 180.324 270.301 180.611 270.973 180.611C271.5 180.611 271.91 180.463 272.203 180.166C272.5 179.869 272.648 179.451 272.648 178.912V178.367C272.215 178.867 271.623 179.117 270.873 179.117C270.131 179.117 269.529 178.818 269.068 178.221C268.611 177.623 268.383 176.809 268.383 175.777ZM269.473 175.9C269.473 176.615 269.619 177.178 269.912 177.588C270.205 177.994 270.615 178.197 271.143 178.197C271.826 178.197 272.328 177.887 272.648 177.266V174.371C272.316 173.766 271.818 173.463 271.154 173.463C270.627 173.463 270.215 173.668 269.918 174.078C269.621 174.488 269.473 175.096 269.473 175.9ZM278.01 179.117C277.15 179.117 276.451 178.836 275.912 178.273C275.373 177.707 275.104 176.951 275.104 176.006V175.807C275.104 175.178 275.223 174.617 275.461 174.125C275.703 173.629 276.039 173.242 276.469 172.965C276.902 172.684 277.371 172.543 277.875 172.543C278.699 172.543 279.34 172.814 279.797 173.357C280.254 173.9 280.482 174.678 280.482 175.689V176.141H276.188C276.203 176.766 276.385 177.271 276.732 177.658C277.084 178.041 277.529 178.232 278.068 178.232C278.451 178.232 278.775 178.154 279.041 177.998C279.307 177.842 279.539 177.635 279.738 177.377L280.4 177.893C279.869 178.709 279.072 179.117 278.01 179.117ZM277.875 173.434C277.438 173.434 277.07 173.594 276.773 173.914C276.477 174.23 276.293 174.676 276.223 175.25H279.398V175.168C279.367 174.617 279.219 174.191 278.953 173.891C278.688 173.586 278.328 173.434 277.875 173.434ZM218.842 192.232C219.229 192.232 219.566 192.115 219.855 191.881C220.145 191.646 220.305 191.354 220.336 191.002H221.361C221.342 191.365 221.217 191.711 220.986 192.039C220.756 192.367 220.447 192.629 220.061 192.824C219.678 193.02 219.271 193.117 218.842 193.117C217.979 193.117 217.291 192.83 216.779 192.256C216.271 191.678 216.018 190.889 216.018 189.889V189.707C216.018 189.09 216.131 188.541 216.357 188.061C216.584 187.58 216.908 187.207 217.33 186.941C217.756 186.676 218.258 186.543 218.836 186.543C219.547 186.543 220.137 186.756 220.605 187.182C221.078 187.607 221.33 188.16 221.361 188.84H220.336C220.305 188.43 220.148 188.094 219.867 187.832C219.59 187.566 219.246 187.434 218.836 187.434C218.285 187.434 217.857 187.633 217.553 188.031C217.252 188.426 217.102 188.998 217.102 189.748V189.953C217.102 190.684 217.252 191.246 217.553 191.641C217.854 192.035 218.283 192.232 218.842 192.232ZM223.664 187.428C224.145 186.838 224.77 186.543 225.539 186.543C226.879 186.543 227.555 187.299 227.566 188.811V193H226.482V188.805C226.479 188.348 226.373 188.01 226.166 187.791C225.963 187.572 225.645 187.463 225.211 187.463C224.859 187.463 224.551 187.557 224.285 187.744C224.02 187.932 223.812 188.178 223.664 188.482V193H222.58V184H223.664V187.428ZM233.104 193C233.041 192.875 232.99 192.652 232.951 192.332C232.447 192.855 231.846 193.117 231.146 193.117C230.521 193.117 230.008 192.941 229.605 192.59C229.207 192.234 229.008 191.785 229.008 191.242C229.008 190.582 229.258 190.07 229.758 189.707C230.262 189.34 230.969 189.156 231.879 189.156H232.934V188.658C232.934 188.279 232.82 187.979 232.594 187.756C232.367 187.529 232.033 187.416 231.592 187.416C231.205 187.416 230.881 187.514 230.619 187.709C230.357 187.904 230.227 188.141 230.227 188.418H229.137C229.137 188.102 229.248 187.797 229.471 187.504C229.697 187.207 230.002 186.973 230.385 186.801C230.771 186.629 231.195 186.543 231.656 186.543C232.387 186.543 232.959 186.727 233.373 187.094C233.787 187.457 234.002 187.959 234.018 188.6V191.518C234.018 192.1 234.092 192.562 234.24 192.906V193H233.104ZM231.305 192.174C231.645 192.174 231.967 192.086 232.271 191.91C232.576 191.734 232.797 191.506 232.934 191.225V189.924H232.084C230.756 189.924 230.092 190.312 230.092 191.09C230.092 191.43 230.205 191.695 230.432 191.887C230.658 192.078 230.949 192.174 231.305 192.174ZM236.742 186.66L236.777 187.457C237.262 186.848 237.895 186.543 238.676 186.543C240.016 186.543 240.691 187.299 240.703 188.811V193H239.619V188.805C239.615 188.348 239.51 188.01 239.303 187.791C239.1 187.572 238.781 187.463 238.348 187.463C237.996 187.463 237.688 187.557 237.422 187.744C237.156 187.932 236.949 188.178 236.801 188.482V193H235.717V186.66H236.742ZM243.363 186.66L243.398 187.457C243.883 186.848 244.516 186.543 245.297 186.543C246.637 186.543 247.312 187.299 247.324 188.811V193H246.24V188.805C246.236 188.348 246.131 188.01 245.924 187.791C245.721 187.572 245.402 187.463 244.969 187.463C244.617 187.463 244.309 187.557 244.043 187.744C243.777 187.932 243.57 188.178 243.422 188.482V193H242.338V186.66H243.363ZM251.59 193.117C250.73 193.117 250.031 192.836 249.492 192.273C248.953 191.707 248.684 190.951 248.684 190.006V189.807C248.684 189.178 248.803 188.617 249.041 188.125C249.283 187.629 249.619 187.242 250.049 186.965C250.482 186.684 250.951 186.543 251.455 186.543C252.279 186.543 252.92 186.814 253.377 187.357C253.834 187.9 254.062 188.678 254.062 189.689V190.141H249.768C249.783 190.766 249.965 191.271 250.312 191.658C250.664 192.041 251.109 192.232 251.648 192.232C252.031 192.232 252.355 192.154 252.621 191.998C252.887 191.842 253.119 191.635 253.318 191.377L253.98 191.893C253.449 192.709 252.652 193.117 251.59 193.117ZM251.455 187.434C251.018 187.434 250.65 187.594 250.354 187.914C250.057 188.23 249.873 188.676 249.803 189.25H252.979V189.168C252.947 188.617 252.799 188.191 252.533 187.891C252.268 187.586 251.908 187.434 251.455 187.434ZM256.5 193H255.416V184H256.5V193ZM260.93 189.771C260.93 189.15 261.051 188.592 261.293 188.096C261.539 187.6 261.879 187.217 262.312 186.947C262.75 186.678 263.248 186.543 263.807 186.543C264.67 186.543 265.367 186.842 265.898 187.439C266.434 188.037 266.701 188.832 266.701 189.824V189.9C266.701 190.518 266.582 191.072 266.344 191.564C266.109 192.053 265.771 192.434 265.33 192.707C264.893 192.98 264.389 193.117 263.818 193.117C262.959 193.117 262.262 192.818 261.727 192.221C261.195 191.623 260.93 190.832 260.93 189.848V189.771ZM262.02 189.9C262.02 190.604 262.182 191.168 262.506 191.594C262.834 192.02 263.271 192.232 263.818 192.232C264.369 192.232 264.807 192.018 265.131 191.588C265.455 191.154 265.617 190.549 265.617 189.771C265.617 189.076 265.451 188.514 265.119 188.084C264.791 187.65 264.354 187.434 263.807 187.434C263.271 187.434 262.84 187.646 262.512 188.072C262.184 188.498 262.02 189.107 262.02 189.9ZM271.125 187.633C270.961 187.605 270.783 187.592 270.592 187.592C269.881 187.592 269.398 187.895 269.145 188.5V193H268.061V186.66H269.115L269.133 187.393C269.488 186.826 269.992 186.543 270.645 186.543C270.855 186.543 271.016 186.57 271.125 186.625V187.633ZM279.018 192.373C278.596 192.869 277.977 193.117 277.16 193.117C276.484 193.117 275.969 192.922 275.613 192.531C275.262 192.137 275.084 191.555 275.08 190.785V186.66H276.164V190.756C276.164 191.717 276.555 192.197 277.336 192.197C278.164 192.197 278.715 191.889 278.988 191.271V186.66H280.072V193H279.041L279.018 192.373ZM285.416 191.318C285.416 191.025 285.305 190.799 285.082 190.639C284.863 190.475 284.479 190.334 283.928 190.217C283.381 190.1 282.945 189.959 282.621 189.795C282.301 189.631 282.062 189.436 281.906 189.209C281.754 188.982 281.678 188.713 281.678 188.4C281.678 187.881 281.896 187.441 282.334 187.082C282.775 186.723 283.338 186.543 284.021 186.543C284.74 186.543 285.322 186.729 285.768 187.1C286.217 187.471 286.441 187.945 286.441 188.523H285.352C285.352 188.227 285.225 187.971 284.971 187.756C284.721 187.541 284.404 187.434 284.021 187.434C283.627 187.434 283.318 187.52 283.096 187.691C282.873 187.863 282.762 188.088 282.762 188.365C282.762 188.627 282.865 188.824 283.072 188.957C283.279 189.09 283.652 189.217 284.191 189.338C284.734 189.459 285.174 189.604 285.51 189.771C285.846 189.939 286.094 190.143 286.254 190.381C286.418 190.615 286.5 190.902 286.5 191.242C286.5 191.809 286.273 192.264 285.82 192.607C285.367 192.947 284.779 193.117 284.057 193.117C283.549 193.117 283.1 193.027 282.709 192.848C282.318 192.668 282.012 192.418 281.789 192.098C281.57 191.773 281.461 191.424 281.461 191.049H282.545C282.564 191.412 282.709 191.701 282.979 191.916C283.252 192.127 283.611 192.232 284.057 192.232C284.467 192.232 284.795 192.15 285.041 191.986C285.291 191.818 285.416 191.596 285.416 191.318ZM290.543 193.117C289.684 193.117 288.984 192.836 288.445 192.273C287.906 191.707 287.637 190.951 287.637 190.006V189.807C287.637 189.178 287.756 188.617 287.994 188.125C288.236 187.629 288.572 187.242 289.002 186.965C289.436 186.684 289.904 186.543 290.408 186.543C291.232 186.543 291.873 186.814 292.33 187.357C292.787 187.9 293.016 188.678 293.016 189.689V190.141H288.721C288.736 190.766 288.918 191.271 289.266 191.658C289.617 192.041 290.062 192.232 290.602 192.232C290.984 192.232 291.309 192.154 291.574 191.998C291.84 191.842 292.072 191.635 292.271 191.377L292.934 191.893C292.402 192.709 291.605 193.117 290.543 193.117ZM290.408 187.434C289.971 187.434 289.604 187.594 289.307 187.914C289.01 188.23 288.826 188.676 288.756 189.25H291.932V189.168C291.9 188.617 291.752 188.191 291.486 187.891C291.221 187.586 290.861 187.434 290.408 187.434ZM297.34 187.633C297.176 187.605 296.998 187.592 296.807 187.592C296.096 187.592 295.613 187.895 295.359 188.5V193H294.275V186.66H295.33L295.348 187.393C295.703 186.826 296.207 186.543 296.859 186.543C297.07 186.543 297.23 186.57 297.34 186.625V187.633Z" fill="black"/>
</svg>
